<?xml version="1.0" encoding="utf-8" standalone="no"?>
<!DOCTYPE svg PUBLIC "-//W3C//DTD SVG 1.1//EN"
  "http://www.w3.org/Graphics/SVG/1.1/DTD/svg11.dtd">
<!-- Created with matplotlib (http://matplotlib.org/) -->
<svg height="1296pt" version="1.1" viewBox="0 0 864 1296" width="864pt" xmlns="http://www.w3.org/2000/svg" xmlns:xlink="http://www.w3.org/1999/xlink">
 <defs>
  <style type="text/css">
*{stroke-linecap:butt;stroke-linejoin:round;}
  </style>
 </defs>
 <g id="figure_1">
  <g id="patch_1">
   <path d="M 0 1296 
L 864 1296 
L 864 0 
L 0 0 
z
" style="fill:#ffffff;"/>
  </g>
  <g id="axes_1">
   <g id="patch_2">
    <path d="M 108 327.575172 
L 777.6 327.575172 
L 777.6 155.52 
L 108 155.52 
z
" style="fill:#ffffff;"/>
   </g>
   <g id="matplotlib.axis_1">
    <g id="xtick_1">
     <g id="line2d_1">
      <defs>
       <path d="M 0 0 
L 0 3.5 
" id="m005a5a3694" style="stroke:#000000;stroke-width:0.8;"/>
      </defs>
      <g>
       <use style="stroke:#000000;stroke-width:0.8;" x="138.436364" xlink:href="#m005a5a3694" y="327.575172"/>
      </g>
     </g>
     <g id="text_1">
      <!-- 0 -->
      <defs>
       <path d="M 31.78125 66.40625 
Q 24.171875 66.40625 20.328125 58.90625 
Q 16.5 51.421875 16.5 36.375 
Q 16.5 21.390625 20.328125 13.890625 
Q 24.171875 6.390625 31.78125 6.390625 
Q 39.453125 6.390625 43.28125 13.890625 
Q 47.125 21.390625 47.125 36.375 
Q 47.125 51.421875 43.28125 58.90625 
Q 39.453125 66.40625 31.78125 66.40625 
z
M 31.78125 74.21875 
Q 44.046875 74.21875 50.515625 64.515625 
Q 56.984375 54.828125 56.984375 36.375 
Q 56.984375 17.96875 50.515625 8.265625 
Q 44.046875 -1.421875 31.78125 -1.421875 
Q 19.53125 -1.421875 13.0625 8.265625 
Q 6.59375 17.96875 6.59375 36.375 
Q 6.59375 54.828125 13.0625 64.515625 
Q 19.53125 74.21875 31.78125 74.21875 
z
" id="DejaVuSans-30"/>
      </defs>
      <g transform="translate(135.255114 342.17361)scale(0.1 -0.1)">
       <use xlink:href="#DejaVuSans-30"/>
      </g>
     </g>
    </g>
    <g id="xtick_2">
     <g id="line2d_2">
      <g>
       <use style="stroke:#000000;stroke-width:0.8;" x="260.193994" xlink:href="#m005a5a3694" y="327.575172"/>
      </g>
     </g>
     <g id="text_2">
      <!-- 200 -->
      <defs>
       <path d="M 19.1875 8.296875 
L 53.609375 8.296875 
L 53.609375 0 
L 7.328125 0 
L 7.328125 8.296875 
Q 12.9375 14.109375 22.625 23.890625 
Q 32.328125 33.6875 34.8125 36.53125 
Q 39.546875 41.84375 41.421875 45.53125 
Q 43.3125 49.21875 43.3125 52.78125 
Q 43.3125 58.59375 39.234375 62.25 
Q 35.15625 65.921875 28.609375 65.921875 
Q 23.96875 65.921875 18.8125 64.3125 
Q 13.671875 62.703125 7.8125 59.421875 
L 7.8125 69.390625 
Q 13.765625 71.78125 18.9375 73 
Q 24.125 74.21875 28.421875 74.21875 
Q 39.75 74.21875 46.484375 68.546875 
Q 53.21875 62.890625 53.21875 53.421875 
Q 53.21875 48.921875 51.53125 44.890625 
Q 49.859375 40.875 45.40625 35.40625 
Q 44.1875 33.984375 37.640625 27.21875 
Q 31.109375 20.453125 19.1875 8.296875 
z
" id="DejaVuSans-32"/>
      </defs>
      <g transform="translate(250.650244 342.17361)scale(0.1 -0.1)">
       <use xlink:href="#DejaVuSans-32"/>
       <use x="63.623047" xlink:href="#DejaVuSans-30"/>
       <use x="127.246094" xlink:href="#DejaVuSans-30"/>
      </g>
     </g>
    </g>
    <g id="xtick_3">
     <g id="line2d_3">
      <g>
       <use style="stroke:#000000;stroke-width:0.8;" x="381.951624" xlink:href="#m005a5a3694" y="327.575172"/>
      </g>
     </g>
     <g id="text_3">
      <!-- 400 -->
      <defs>
       <path d="M 37.796875 64.3125 
L 12.890625 25.390625 
L 37.796875 25.390625 
z
M 35.203125 72.90625 
L 47.609375 72.90625 
L 47.609375 25.390625 
L 58.015625 25.390625 
L 58.015625 17.1875 
L 47.609375 17.1875 
L 47.609375 0 
L 37.796875 0 
L 37.796875 17.1875 
L 4.890625 17.1875 
L 4.890625 26.703125 
z
" id="DejaVuSans-34"/>
      </defs>
      <g transform="translate(372.407874 342.17361)scale(0.1 -0.1)">
       <use xlink:href="#DejaVuSans-34"/>
       <use x="63.623047" xlink:href="#DejaVuSans-30"/>
       <use x="127.246094" xlink:href="#DejaVuSans-30"/>
      </g>
     </g>
    </g>
    <g id="xtick_4">
     <g id="line2d_4">
      <g>
       <use style="stroke:#000000;stroke-width:0.8;" x="503.709255" xlink:href="#m005a5a3694" y="327.575172"/>
      </g>
     </g>
     <g id="text_4">
      <!-- 600 -->
      <defs>
       <path d="M 33.015625 40.375 
Q 26.375 40.375 22.484375 35.828125 
Q 18.609375 31.296875 18.609375 23.390625 
Q 18.609375 15.53125 22.484375 10.953125 
Q 26.375 6.390625 33.015625 6.390625 
Q 39.65625 6.390625 43.53125 10.953125 
Q 47.40625 15.53125 47.40625 23.390625 
Q 47.40625 31.296875 43.53125 35.828125 
Q 39.65625 40.375 33.015625 40.375 
z
M 52.59375 71.296875 
L 52.59375 62.3125 
Q 48.875 64.0625 45.09375 64.984375 
Q 41.3125 65.921875 37.59375 65.921875 
Q 27.828125 65.921875 22.671875 59.328125 
Q 17.53125 52.734375 16.796875 39.40625 
Q 19.671875 43.65625 24.015625 45.921875 
Q 28.375 48.1875 33.59375 48.1875 
Q 44.578125 48.1875 50.953125 41.515625 
Q 57.328125 34.859375 57.328125 23.390625 
Q 57.328125 12.15625 50.6875 5.359375 
Q 44.046875 -1.421875 33.015625 -1.421875 
Q 20.359375 -1.421875 13.671875 8.265625 
Q 6.984375 17.96875 6.984375 36.375 
Q 6.984375 53.65625 15.1875 63.9375 
Q 23.390625 74.21875 37.203125 74.21875 
Q 40.921875 74.21875 44.703125 73.484375 
Q 48.484375 72.75 52.59375 71.296875 
z
" id="DejaVuSans-36"/>
      </defs>
      <g transform="translate(494.165505 342.17361)scale(0.1 -0.1)">
       <use xlink:href="#DejaVuSans-36"/>
       <use x="63.623047" xlink:href="#DejaVuSans-30"/>
       <use x="127.246094" xlink:href="#DejaVuSans-30"/>
      </g>
     </g>
    </g>
    <g id="xtick_5">
     <g id="line2d_5">
      <g>
       <use style="stroke:#000000;stroke-width:0.8;" x="625.466885" xlink:href="#m005a5a3694" y="327.575172"/>
      </g>
     </g>
     <g id="text_5">
      <!-- 800 -->
      <defs>
       <path d="M 31.78125 34.625 
Q 24.75 34.625 20.71875 30.859375 
Q 16.703125 27.09375 16.703125 20.515625 
Q 16.703125 13.921875 20.71875 10.15625 
Q 24.75 6.390625 31.78125 6.390625 
Q 38.8125 6.390625 42.859375 10.171875 
Q 46.921875 13.96875 46.921875 20.515625 
Q 46.921875 27.09375 42.890625 30.859375 
Q 38.875 34.625 31.78125 34.625 
z
M 21.921875 38.8125 
Q 15.578125 40.375 12.03125 44.71875 
Q 8.5 49.078125 8.5 55.328125 
Q 8.5 64.0625 14.71875 69.140625 
Q 20.953125 74.21875 31.78125 74.21875 
Q 42.671875 74.21875 48.875 69.140625 
Q 55.078125 64.0625 55.078125 55.328125 
Q 55.078125 49.078125 51.53125 44.71875 
Q 48 40.375 41.703125 38.8125 
Q 48.828125 37.15625 52.796875 32.3125 
Q 56.78125 27.484375 56.78125 20.515625 
Q 56.78125 9.90625 50.3125 4.234375 
Q 43.84375 -1.421875 31.78125 -1.421875 
Q 19.734375 -1.421875 13.25 4.234375 
Q 6.78125 9.90625 6.78125 20.515625 
Q 6.78125 27.484375 10.78125 32.3125 
Q 14.796875 37.15625 21.921875 38.8125 
z
M 18.3125 54.390625 
Q 18.3125 48.734375 21.84375 45.5625 
Q 25.390625 42.390625 31.78125 42.390625 
Q 38.140625 42.390625 41.71875 45.5625 
Q 45.3125 48.734375 45.3125 54.390625 
Q 45.3125 60.0625 41.71875 63.234375 
Q 38.140625 66.40625 31.78125 66.40625 
Q 25.390625 66.40625 21.84375 63.234375 
Q 18.3125 60.0625 18.3125 54.390625 
z
" id="DejaVuSans-38"/>
      </defs>
      <g transform="translate(615.923135 342.17361)scale(0.1 -0.1)">
       <use xlink:href="#DejaVuSans-38"/>
       <use x="63.623047" xlink:href="#DejaVuSans-30"/>
       <use x="127.246094" xlink:href="#DejaVuSans-30"/>
      </g>
     </g>
    </g>
    <g id="xtick_6">
     <g id="line2d_6">
      <g>
       <use style="stroke:#000000;stroke-width:0.8;" x="747.224515" xlink:href="#m005a5a3694" y="327.575172"/>
      </g>
     </g>
     <g id="text_6">
      <!-- 1000 -->
      <defs>
       <path d="M 12.40625 8.296875 
L 28.515625 8.296875 
L 28.515625 63.921875 
L 10.984375 60.40625 
L 10.984375 69.390625 
L 28.421875 72.90625 
L 38.28125 72.90625 
L 38.28125 8.296875 
L 54.390625 8.296875 
L 54.390625 0 
L 12.40625 0 
z
" id="DejaVuSans-31"/>
      </defs>
      <g transform="translate(734.499515 342.17361)scale(0.1 -0.1)">
       <use xlink:href="#DejaVuSans-31"/>
       <use x="63.623047" xlink:href="#DejaVuSans-30"/>
       <use x="127.246094" xlink:href="#DejaVuSans-30"/>
       <use x="190.869141" xlink:href="#DejaVuSans-30"/>
      </g>
     </g>
    </g>
    <g id="text_7">
     <!-- v[99] -->
     <defs>
      <path d="M 2.984375 54.6875 
L 12.5 54.6875 
L 29.59375 8.796875 
L 46.6875 54.6875 
L 56.203125 54.6875 
L 35.6875 0 
L 23.484375 0 
z
" id="DejaVuSans-76"/>
      <path d="M 8.59375 75.984375 
L 29.296875 75.984375 
L 29.296875 69 
L 17.578125 69 
L 17.578125 -6.203125 
L 29.296875 -6.203125 
L 29.296875 -13.1875 
L 8.59375 -13.1875 
z
" id="DejaVuSans-5b"/>
      <path d="M 10.984375 1.515625 
L 10.984375 10.5 
Q 14.703125 8.734375 18.5 7.8125 
Q 22.3125 6.890625 25.984375 6.890625 
Q 35.75 6.890625 40.890625 13.453125 
Q 46.046875 20.015625 46.78125 33.40625 
Q 43.953125 29.203125 39.59375 26.953125 
Q 35.25 24.703125 29.984375 24.703125 
Q 19.046875 24.703125 12.671875 31.3125 
Q 6.296875 37.9375 6.296875 49.421875 
Q 6.296875 60.640625 12.9375 67.421875 
Q 19.578125 74.21875 30.609375 74.21875 
Q 43.265625 74.21875 49.921875 64.515625 
Q 56.59375 54.828125 56.59375 36.375 
Q 56.59375 19.140625 48.40625 8.859375 
Q 40.234375 -1.421875 26.421875 -1.421875 
Q 22.703125 -1.421875 18.890625 -0.6875 
Q 15.09375 0.046875 10.984375 1.515625 
z
M 30.609375 32.421875 
Q 37.25 32.421875 41.125 36.953125 
Q 45.015625 41.5 45.015625 49.421875 
Q 45.015625 57.28125 41.125 61.84375 
Q 37.25 66.40625 30.609375 66.40625 
Q 23.96875 66.40625 20.09375 61.84375 
Q 16.21875 57.28125 16.21875 49.421875 
Q 16.21875 41.5 20.09375 36.953125 
Q 23.96875 32.421875 30.609375 32.421875 
z
" id="DejaVuSans-39"/>
      <path d="M 30.421875 75.984375 
L 30.421875 -13.1875 
L 9.71875 -13.1875 
L 9.71875 -6.203125 
L 21.390625 -6.203125 
L 21.390625 69 
L 9.71875 69 
L 9.71875 75.984375 
z
" id="DejaVuSans-5d"/>
     </defs>
     <g transform="translate(429.576563 355.851735)scale(0.1 -0.1)">
      <use xlink:href="#DejaVuSans-76"/>
      <use x="59.179688" xlink:href="#DejaVuSans-5b"/>
      <use x="98.193359" xlink:href="#DejaVuSans-39"/>
      <use x="161.816406" xlink:href="#DejaVuSans-39"/>
      <use x="225.439453" xlink:href="#DejaVuSans-5d"/>
     </g>
    </g>
   </g>
   <g id="matplotlib.axis_2">
    <g id="ytick_1">
     <g id="line2d_7">
      <defs>
       <path d="M 0 0 
L -3.5 0 
" id="m2cf8308b52" style="stroke:#000000;stroke-width:0.8;"/>
      </defs>
      <g>
       <use style="stroke:#000000;stroke-width:0.8;" x="108" xlink:href="#m2cf8308b52" y="319.754483"/>
      </g>
     </g>
     <g id="text_8">
      <!-- 0 -->
      <g transform="translate(94.6375 323.553702)scale(0.1 -0.1)">
       <use xlink:href="#DejaVuSans-30"/>
      </g>
     </g>
    </g>
    <g id="ytick_2">
     <g id="line2d_8">
      <g>
       <use style="stroke:#000000;stroke-width:0.8;" x="108" xlink:href="#m2cf8308b52" y="288.125061"/>
      </g>
     </g>
     <g id="text_9">
      <!-- 200 -->
      <g transform="translate(81.9125 291.92428)scale(0.1 -0.1)">
       <use xlink:href="#DejaVuSans-32"/>
       <use x="63.623047" xlink:href="#DejaVuSans-30"/>
       <use x="127.246094" xlink:href="#DejaVuSans-30"/>
      </g>
     </g>
    </g>
    <g id="ytick_3">
     <g id="line2d_9">
      <g>
       <use style="stroke:#000000;stroke-width:0.8;" x="108" xlink:href="#m2cf8308b52" y="256.49564"/>
      </g>
     </g>
     <g id="text_10">
      <!-- 400 -->
      <g transform="translate(81.9125 260.294859)scale(0.1 -0.1)">
       <use xlink:href="#DejaVuSans-34"/>
       <use x="63.623047" xlink:href="#DejaVuSans-30"/>
       <use x="127.246094" xlink:href="#DejaVuSans-30"/>
      </g>
     </g>
    </g>
    <g id="ytick_4">
     <g id="line2d_10">
      <g>
       <use style="stroke:#000000;stroke-width:0.8;" x="108" xlink:href="#m2cf8308b52" y="224.866218"/>
      </g>
     </g>
     <g id="text_11">
      <!-- 600 -->
      <g transform="translate(81.9125 228.665437)scale(0.1 -0.1)">
       <use xlink:href="#DejaVuSans-36"/>
       <use x="63.623047" xlink:href="#DejaVuSans-30"/>
       <use x="127.246094" xlink:href="#DejaVuSans-30"/>
      </g>
     </g>
    </g>
    <g id="ytick_5">
     <g id="line2d_11">
      <g>
       <use style="stroke:#000000;stroke-width:0.8;" x="108" xlink:href="#m2cf8308b52" y="193.236797"/>
      </g>
     </g>
     <g id="text_12">
      <!-- 800 -->
      <g transform="translate(81.9125 197.036016)scale(0.1 -0.1)">
       <use xlink:href="#DejaVuSans-38"/>
       <use x="63.623047" xlink:href="#DejaVuSans-30"/>
       <use x="127.246094" xlink:href="#DejaVuSans-30"/>
      </g>
     </g>
    </g>
    <g id="ytick_6">
     <g id="line2d_12">
      <g>
       <use style="stroke:#000000;stroke-width:0.8;" x="108" xlink:href="#m2cf8308b52" y="161.607376"/>
      </g>
     </g>
     <g id="text_13">
      <!-- 1000 -->
      <g transform="translate(75.55 165.406594)scale(0.1 -0.1)">
       <use xlink:href="#DejaVuSans-31"/>
       <use x="63.623047" xlink:href="#DejaVuSans-30"/>
       <use x="127.246094" xlink:href="#DejaVuSans-30"/>
       <use x="190.869141" xlink:href="#DejaVuSans-30"/>
      </g>
     </g>
    </g>
    <g id="text_14">
     <!-- V[mV] -->
     <defs>
      <path d="M 28.609375 0 
L 0.78125 72.90625 
L 11.078125 72.90625 
L 34.1875 11.53125 
L 57.328125 72.90625 
L 67.578125 72.90625 
L 39.796875 0 
z
" id="DejaVuSans-56"/>
      <path d="M 52 44.1875 
Q 55.375 50.25 60.0625 53.125 
Q 64.75 56 71.09375 56 
Q 79.640625 56 84.28125 50.015625 
Q 88.921875 44.046875 88.921875 33.015625 
L 88.921875 0 
L 79.890625 0 
L 79.890625 32.71875 
Q 79.890625 40.578125 77.09375 44.375 
Q 74.3125 48.1875 68.609375 48.1875 
Q 61.625 48.1875 57.5625 43.546875 
Q 53.515625 38.921875 53.515625 30.90625 
L 53.515625 0 
L 44.484375 0 
L 44.484375 32.71875 
Q 44.484375 40.625 41.703125 44.40625 
Q 38.921875 48.1875 33.109375 48.1875 
Q 26.21875 48.1875 22.15625 43.53125 
Q 18.109375 38.875 18.109375 30.90625 
L 18.109375 0 
L 9.078125 0 
L 9.078125 54.6875 
L 18.109375 54.6875 
L 18.109375 46.1875 
Q 21.1875 51.21875 25.484375 53.609375 
Q 29.78125 56 35.6875 56 
Q 41.65625 56 45.828125 52.96875 
Q 50 49.953125 52 44.1875 
z
" id="DejaVuSans-6d"/>
     </defs>
     <g transform="translate(69.470312 257.160086)rotate(-90)scale(0.1 -0.1)">
      <use xlink:href="#DejaVuSans-56"/>
      <use x="68.408203" xlink:href="#DejaVuSans-5b"/>
      <use x="107.421875" xlink:href="#DejaVuSans-6d"/>
      <use x="204.833984" xlink:href="#DejaVuSans-56"/>
      <use x="273.242188" xlink:href="#DejaVuSans-5d"/>
     </g>
    </g>
   </g>
   <g id="line2d_13">
    <path clip-path="url(#p0c9884d0c6)" d="M 138.436364 319.754483 
L 139.65394 233.752862 
L 140.871516 163.34069 
L 140.993274 319.754483 
L 143.915457 319.754483 
L 145.133033 233.752862 
L 146.35061 163.34069 
L 146.472367 319.754483 
L 149.39455 319.754483 
L 150.612127 233.752862 
L 151.829703 163.34069 
L 151.951461 319.754483 
L 154.934523 319.754483 
L 156.152099 233.752862 
L 157.369675 163.34069 
L 157.491433 319.754483 
L 160.474495 319.754483 
L 161.692071 233.752862 
L 162.909647 163.34069 
L 163.031405 319.754483 
L 165.953588 319.754483 
L 167.171164 233.752862 
L 168.388741 163.34069 
L 168.510498 319.754483 
L 171.432681 319.754483 
L 172.650258 233.752862 
L 173.867834 163.34069 
L 173.989592 319.754483 
L 176.911775 319.754483 
L 178.129351 233.752862 
L 179.346927 163.34069 
L 179.468685 319.754483 
L 182.451747 319.754483 
L 183.669323 233.752862 
L 184.8869 163.34069 
L 185.008657 319.754483 
L 187.991719 319.754483 
L 189.209295 233.752862 
L 190.426872 163.34069 
L 190.548629 319.754483 
L 193.470813 319.754483 
L 194.688389 233.752862 
L 195.905965 163.34069 
L 196.027723 319.754483 
L 198.949906 319.754483 
L 200.167482 233.752862 
L 201.385059 163.34069 
L 201.506816 319.754483 
L 204.428999 319.754483 
L 205.646576 233.752862 
L 206.864152 163.34069 
L 206.98591 319.754483 
L 209.908093 319.754483 
L 211.125669 233.752862 
L 212.343245 163.34069 
L 212.465003 319.754483 
L 215.387186 319.754483 
L 216.604762 233.752862 
L 217.822339 163.34069 
L 217.944096 319.754483 
L 220.866279 319.754483 
L 222.083856 233.752862 
L 223.301432 163.34069 
L 223.42319 319.754483 
L 226.345373 319.754483 
L 227.562949 233.752862 
L 228.780525 163.34069 
L 228.902283 319.754483 
L 231.824466 319.754483 
L 233.042042 233.752862 
L 234.259619 163.34069 
L 234.381376 319.754483 
L 237.303559 319.754483 
L 238.521136 233.752862 
L 239.738712 163.34069 
L 239.86047 319.754483 
L 242.843532 319.754483 
L 244.061108 233.752862 
L 245.278684 163.34069 
L 245.400442 319.754483 
L 248.322625 319.754483 
L 249.540201 233.752862 
L 250.757778 163.34069 
L 250.879535 319.754483 
L 253.801718 319.754483 
L 255.019295 233.752862 
L 256.236871 163.34069 
L 256.358629 319.754483 
L 259.280812 319.754483 
L 260.498388 233.752862 
L 261.715964 163.34069 
L 261.837722 319.754483 
L 264.759905 319.754483 
L 265.977481 233.752862 
L 267.195058 163.34069 
L 267.316815 319.754483 
L 270.299877 319.754483 
L 271.517454 233.752862 
L 272.73503 163.34069 
L 272.856787 319.754483 
L 275.778971 319.754483 
L 276.996547 233.752862 
L 278.214123 163.34069 
L 278.335881 319.754483 
L 281.258064 319.754483 
L 282.47564 233.752862 
L 283.693217 163.34069 
L 283.814974 319.754483 
L 286.737157 319.754483 
L 287.954734 233.752862 
L 289.17231 163.34069 
L 289.294068 319.754483 
L 292.27713 319.754483 
L 293.494706 233.752862 
L 294.712282 163.34069 
L 294.83404 319.754483 
L 297.817102 319.754483 
L 299.034678 233.752862 
L 300.252254 163.34069 
L 300.374012 319.754483 
L 303.296195 319.754483 
L 304.513771 233.752862 
L 305.731348 163.34069 
L 305.853105 319.754483 
L 308.775288 319.754483 
L 309.992865 233.752862 
L 311.210441 163.34069 
L 311.332199 319.754483 
L 314.254382 319.754483 
L 315.471958 233.752862 
L 316.689534 163.34069 
L 316.811292 319.754483 
L 319.733475 319.754483 
L 320.951051 233.752862 
L 322.168628 163.34069 
L 322.290385 319.754483 
L 325.212569 319.754483 
L 326.430145 233.752862 
L 327.647721 163.34069 
L 327.769479 319.754483 
L 330.691662 319.754483 
L 331.909238 233.752862 
L 333.126814 163.34069 
L 333.248572 319.754483 
L 336.170755 319.754483 
L 337.388332 233.752862 
L 338.605908 163.34069 
L 338.727665 319.754483 
L 341.649849 319.754483 
L 342.867425 233.752862 
L 344.085001 163.34069 
L 344.206759 319.754483 
L 347.128942 319.754483 
L 348.346518 233.752862 
L 349.564095 163.34069 
L 349.685852 319.754483 
L 352.608035 319.754483 
L 353.825612 233.752862 
L 355.043188 163.34069 
L 355.164946 319.754483 
L 358.087129 319.754483 
L 359.304705 233.752862 
L 360.522281 163.34069 
L 360.644039 319.754483 
L 363.566222 319.754483 
L 364.783798 233.752862 
L 366.001375 163.34069 
L 366.123132 319.754483 
L 369.045315 319.754483 
L 370.262892 233.752862 
L 371.480468 163.34069 
L 371.602226 319.754483 
L 374.524409 319.754483 
L 375.741985 233.752862 
L 376.959561 163.34069 
L 377.081319 319.754483 
L 380.003502 319.754483 
L 381.221078 233.752862 
L 382.438655 163.34069 
L 382.560412 319.754483 
L 385.543474 319.754483 
L 386.761051 233.752862 
L 387.978627 163.34069 
L 388.100385 319.754483 
L 391.022568 319.754483 
L 392.240144 233.752862 
L 393.45772 163.34069 
L 393.579478 319.754483 
L 396.501661 319.754483 
L 397.719237 233.752862 
L 398.936814 163.34069 
L 399.058571 319.754483 
L 401.980754 319.754483 
L 403.198331 233.752862 
L 404.415907 163.34069 
L 404.537665 319.754483 
L 407.459848 319.754483 
L 408.677424 233.752862 
L 409.895 163.34069 
L 410.016758 319.754483 
L 412.938941 319.754483 
L 414.156517 233.752862 
L 415.374094 163.34069 
L 415.495851 319.754483 
L 418.418035 319.754483 
L 419.635611 233.752862 
L 420.853187 163.34069 
L 420.974945 319.754483 
L 423.897128 319.754483 
L 425.114704 233.752862 
L 426.332281 163.34069 
L 426.454038 319.754483 
L 429.376221 319.754483 
L 430.593798 233.752862 
L 431.811374 163.34069 
L 431.933131 319.754483 
L 434.916193 319.754483 
L 436.13377 233.752862 
L 437.351346 163.34069 
L 437.473104 319.754483 
L 440.456166 319.754483 
L 441.673742 233.752862 
L 442.891318 163.34069 
L 443.013076 319.754483 
L 445.935259 319.754483 
L 447.152835 233.752862 
L 448.370412 163.34069 
L 448.492169 319.754483 
L 451.414352 319.754483 
L 452.631929 233.752862 
L 453.849505 163.34069 
L 453.971263 319.754483 
L 456.893446 319.754483 
L 458.111022 233.752862 
L 459.328598 163.34069 
L 459.450356 319.754483 
L 462.372539 319.754483 
L 463.590115 233.752862 
L 464.807692 163.34069 
L 464.929449 319.754483 
L 467.851632 319.754483 
L 469.069209 233.752862 
L 470.286785 163.34069 
L 470.408543 319.754483 
L 473.330726 319.754483 
L 474.548302 233.752862 
L 475.765878 163.34069 
L 475.887636 319.754483 
L 478.809819 319.754483 
L 480.027395 233.752862 
L 481.244972 163.34069 
L 481.366729 319.754483 
L 484.288913 319.754483 
L 485.506489 233.752862 
L 486.724065 163.34069 
L 486.845823 319.754483 
L 489.768006 319.754483 
L 490.985582 233.752862 
L 492.203158 163.34069 
L 492.324916 319.754483 
L 495.247099 319.754483 
L 496.464676 233.752862 
L 497.682252 163.34069 
L 497.804009 319.754483 
L 500.726193 319.754483 
L 501.943769 233.752862 
L 503.161345 163.34069 
L 503.283103 319.754483 
L 506.205286 319.754483 
L 507.422862 233.752862 
L 508.640439 163.34069 
L 508.762196 319.754483 
L 511.684379 319.754483 
L 512.901956 233.752862 
L 514.119532 163.34069 
L 514.24129 319.754483 
L 517.163473 319.754483 
L 518.381049 233.752862 
L 519.598625 163.34069 
L 519.720383 319.754483 
L 522.642566 319.754483 
L 523.860142 233.752862 
L 525.077719 163.34069 
L 525.199476 319.754483 
L 528.121659 319.754483 
L 529.339236 233.752862 
L 530.556812 163.34069 
L 530.67857 319.754483 
L 533.600753 319.754483 
L 534.818329 233.752862 
L 536.035905 163.34069 
L 536.157663 319.754483 
L 539.079846 319.754483 
L 540.297422 233.752862 
L 541.514999 163.34069 
L 541.636756 319.754483 
L 544.55894 319.754483 
L 545.776516 233.752862 
L 546.994092 163.34069 
L 547.11585 319.754483 
L 550.038033 319.754483 
L 551.255609 233.752862 
L 552.473186 163.34069 
L 552.594943 319.754483 
L 555.517126 319.754483 
L 556.734703 233.752862 
L 557.952279 163.34069 
L 558.074036 319.754483 
L 560.99622 319.754483 
L 562.213796 233.752862 
L 563.431372 163.34069 
L 563.55313 319.754483 
L 566.475313 319.754483 
L 567.692889 233.752862 
L 568.910466 163.34069 
L 569.032223 319.754483 
L 571.954406 319.754483 
L 573.171983 233.752862 
L 574.389559 163.34069 
L 574.511317 319.754483 
L 577.4335 319.754483 
L 578.651076 233.752862 
L 579.868652 163.34069 
L 579.99041 319.754483 
L 582.912593 319.754483 
L 584.130169 233.752862 
L 585.347746 163.34069 
L 585.469503 319.754483 
L 588.391686 319.754483 
L 589.609263 233.752862 
L 590.826839 163.34069 
L 590.948597 319.754483 
L 593.87078 319.754483 
L 595.088356 233.752862 
L 596.305932 163.34069 
L 596.42769 319.754483 
L 599.349873 319.754483 
L 600.567449 233.752862 
L 601.785026 163.34069 
L 601.906783 319.754483 
L 604.828967 319.754483 
L 606.046543 233.752862 
L 607.264119 163.34069 
L 607.385877 319.754483 
L 610.30806 319.754483 
L 611.525636 233.752862 
L 612.743213 163.34069 
L 612.86497 319.754483 
L 615.787153 319.754483 
L 617.00473 233.752862 
L 618.222306 163.34069 
L 618.344063 319.754483 
L 621.266247 319.754483 
L 622.483823 233.752862 
L 623.701399 163.34069 
L 623.823157 319.754483 
L 626.74534 319.754483 
L 627.962916 233.752862 
L 629.180493 163.34069 
L 629.30225 319.754483 
L 632.224433 319.754483 
L 633.44201 233.752862 
L 634.659586 163.34069 
L 634.781344 319.754483 
L 637.703527 319.754483 
L 638.921103 233.752862 
L 640.138679 163.34069 
L 640.260437 319.754483 
L 643.18262 319.754483 
L 644.400196 233.752862 
L 645.617773 163.34069 
L 645.73953 319.754483 
L 648.661713 319.754483 
L 649.87929 233.752862 
L 651.096866 163.34069 
L 651.218624 319.754483 
L 654.140807 319.754483 
L 655.358383 233.752862 
L 656.575959 163.34069 
L 656.697717 319.754483 
L 659.6199 319.754483 
L 660.837476 233.752862 
L 662.055053 163.34069 
L 662.17681 319.754483 
L 665.098994 319.754483 
L 666.31657 233.752862 
L 667.534146 163.34069 
L 667.655904 319.754483 
L 670.638966 319.754483 
L 671.856542 233.752862 
L 673.074118 163.34069 
L 673.195876 319.754483 
L 676.118059 319.754483 
L 677.335635 233.752862 
L 678.553212 163.34069 
L 678.674969 319.754483 
L 681.597152 319.754483 
L 682.814729 233.752862 
L 684.032305 163.34069 
L 684.154063 319.754483 
L 687.076246 319.754483 
L 688.293822 233.752862 
L 689.511398 163.34069 
L 689.633156 319.754483 
L 692.555339 319.754483 
L 693.772915 233.752862 
L 694.990492 163.34069 
L 695.112249 319.754483 
L 698.034433 319.754483 
L 699.252009 233.752862 
L 700.469585 163.34069 
L 700.591343 319.754483 
L 703.513526 319.754483 
L 704.731102 233.752862 
L 705.948679 163.34069 
L 706.070436 319.754483 
L 708.992619 319.754483 
L 710.210196 233.752862 
L 711.427772 163.34069 
L 711.549529 319.754483 
L 714.471713 319.754483 
L 715.689289 233.752862 
L 716.906865 163.34069 
L 717.028623 319.754483 
L 719.950806 319.754483 
L 721.168382 233.752862 
L 722.385959 163.34069 
L 722.507716 319.754483 
L 725.429899 319.754483 
L 726.647476 233.752862 
L 727.865052 163.34069 
L 727.98681 319.754483 
L 730.908993 319.754483 
L 732.126569 233.752862 
L 733.344145 163.34069 
L 733.465903 319.754483 
L 736.388086 319.754483 
L 737.605662 233.752862 
L 738.823239 163.34069 
L 738.944996 319.754483 
L 741.867179 319.754483 
L 743.084756 233.752862 
L 744.302332 163.34069 
L 744.42409 319.754483 
L 747.163636 319.754483 
L 747.163636 319.754483 
" style="fill:none;stroke:#1f77b4;stroke-linecap:square;stroke-width:1.5;"/>
   </g>
   <g id="patch_3">
    <path d="M 108 327.575172 
L 108 155.52 
" style="fill:none;stroke:#000000;stroke-linecap:square;stroke-linejoin:miter;stroke-width:0.8;"/>
   </g>
   <g id="patch_4">
    <path d="M 777.6 327.575172 
L 777.6 155.52 
" style="fill:none;stroke:#000000;stroke-linecap:square;stroke-linejoin:miter;stroke-width:0.8;"/>
   </g>
   <g id="patch_5">
    <path d="M 108 327.575172 
L 777.6 327.575172 
" style="fill:none;stroke:#000000;stroke-linecap:square;stroke-linejoin:miter;stroke-width:0.8;"/>
   </g>
   <g id="patch_6">
    <path d="M 108 155.52 
L 777.6 155.52 
" style="fill:none;stroke:#000000;stroke-linecap:square;stroke-linejoin:miter;stroke-width:0.8;"/>
   </g>
  </g>
  <g id="axes_2">
   <g id="patch_7">
    <path d="M 108 534.041379 
L 777.6 534.041379 
L 777.6 361.986207 
L 108 361.986207 
z
" style="fill:#ffffff;"/>
   </g>
   <g id="matplotlib.axis_3">
    <g id="xtick_7">
     <g id="line2d_14">
      <g>
       <use style="stroke:#000000;stroke-width:0.8;" x="138.436364" xlink:href="#m005a5a3694" y="534.041379"/>
      </g>
     </g>
     <g id="text_15">
      <!-- 0 -->
      <g transform="translate(135.255114 548.639817)scale(0.1 -0.1)">
       <use xlink:href="#DejaVuSans-30"/>
      </g>
     </g>
    </g>
    <g id="xtick_8">
     <g id="line2d_15">
      <g>
       <use style="stroke:#000000;stroke-width:0.8;" x="260.193994" xlink:href="#m005a5a3694" y="534.041379"/>
      </g>
     </g>
     <g id="text_16">
      <!-- 200 -->
      <g transform="translate(250.650244 548.639817)scale(0.1 -0.1)">
       <use xlink:href="#DejaVuSans-32"/>
       <use x="63.623047" xlink:href="#DejaVuSans-30"/>
       <use x="127.246094" xlink:href="#DejaVuSans-30"/>
      </g>
     </g>
    </g>
    <g id="xtick_9">
     <g id="line2d_16">
      <g>
       <use style="stroke:#000000;stroke-width:0.8;" x="381.951624" xlink:href="#m005a5a3694" y="534.041379"/>
      </g>
     </g>
     <g id="text_17">
      <!-- 400 -->
      <g transform="translate(372.407874 548.639817)scale(0.1 -0.1)">
       <use xlink:href="#DejaVuSans-34"/>
       <use x="63.623047" xlink:href="#DejaVuSans-30"/>
       <use x="127.246094" xlink:href="#DejaVuSans-30"/>
      </g>
     </g>
    </g>
    <g id="xtick_10">
     <g id="line2d_17">
      <g>
       <use style="stroke:#000000;stroke-width:0.8;" x="503.709255" xlink:href="#m005a5a3694" y="534.041379"/>
      </g>
     </g>
     <g id="text_18">
      <!-- 600 -->
      <g transform="translate(494.165505 548.639817)scale(0.1 -0.1)">
       <use xlink:href="#DejaVuSans-36"/>
       <use x="63.623047" xlink:href="#DejaVuSans-30"/>
       <use x="127.246094" xlink:href="#DejaVuSans-30"/>
      </g>
     </g>
    </g>
    <g id="xtick_11">
     <g id="line2d_18">
      <g>
       <use style="stroke:#000000;stroke-width:0.8;" x="625.466885" xlink:href="#m005a5a3694" y="534.041379"/>
      </g>
     </g>
     <g id="text_19">
      <!-- 800 -->
      <g transform="translate(615.923135 548.639817)scale(0.1 -0.1)">
       <use xlink:href="#DejaVuSans-38"/>
       <use x="63.623047" xlink:href="#DejaVuSans-30"/>
       <use x="127.246094" xlink:href="#DejaVuSans-30"/>
      </g>
     </g>
    </g>
    <g id="xtick_12">
     <g id="line2d_19">
      <g>
       <use style="stroke:#000000;stroke-width:0.8;" x="747.224515" xlink:href="#m005a5a3694" y="534.041379"/>
      </g>
     </g>
     <g id="text_20">
      <!-- 1000 -->
      <g transform="translate(734.499515 548.639817)scale(0.1 -0.1)">
       <use xlink:href="#DejaVuSans-31"/>
       <use x="63.623047" xlink:href="#DejaVuSans-30"/>
       <use x="127.246094" xlink:href="#DejaVuSans-30"/>
       <use x="190.869141" xlink:href="#DejaVuSans-30"/>
      </g>
     </g>
    </g>
    <g id="text_21">
     <!-- v[75] -->
     <defs>
      <path d="M 8.203125 72.90625 
L 55.078125 72.90625 
L 55.078125 68.703125 
L 28.609375 0 
L 18.3125 0 
L 43.21875 64.59375 
L 8.203125 64.59375 
z
" id="DejaVuSans-37"/>
      <path d="M 10.796875 72.90625 
L 49.515625 72.90625 
L 49.515625 64.59375 
L 19.828125 64.59375 
L 19.828125 46.734375 
Q 21.96875 47.46875 24.109375 47.828125 
Q 26.265625 48.1875 28.421875 48.1875 
Q 40.625 48.1875 47.75 41.5 
Q 54.890625 34.8125 54.890625 23.390625 
Q 54.890625 11.625 47.5625 5.09375 
Q 40.234375 -1.421875 26.90625 -1.421875 
Q 22.3125 -1.421875 17.546875 -0.640625 
Q 12.796875 0.140625 7.71875 1.703125 
L 7.71875 11.625 
Q 12.109375 9.234375 16.796875 8.0625 
Q 21.484375 6.890625 26.703125 6.890625 
Q 35.15625 6.890625 40.078125 11.328125 
Q 45.015625 15.765625 45.015625 23.390625 
Q 45.015625 31 40.078125 35.4375 
Q 35.15625 39.890625 26.703125 39.890625 
Q 22.75 39.890625 18.8125 39.015625 
Q 14.890625 38.140625 10.796875 36.28125 
z
" id="DejaVuSans-35"/>
     </defs>
     <g transform="translate(429.576563 562.317942)scale(0.1 -0.1)">
      <use xlink:href="#DejaVuSans-76"/>
      <use x="59.179688" xlink:href="#DejaVuSans-5b"/>
      <use x="98.193359" xlink:href="#DejaVuSans-37"/>
      <use x="161.816406" xlink:href="#DejaVuSans-35"/>
      <use x="225.439453" xlink:href="#DejaVuSans-5d"/>
     </g>
    </g>
   </g>
   <g id="matplotlib.axis_4">
    <g id="ytick_7">
     <g id="line2d_20">
      <g>
       <use style="stroke:#000000;stroke-width:0.8;" x="108" xlink:href="#m2cf8308b52" y="526.22069"/>
      </g>
     </g>
     <g id="text_22">
      <!-- 0 -->
      <g transform="translate(94.6375 530.019908)scale(0.1 -0.1)">
       <use xlink:href="#DejaVuSans-30"/>
      </g>
     </g>
    </g>
    <g id="ytick_8">
     <g id="line2d_21">
      <g>
       <use style="stroke:#000000;stroke-width:0.8;" x="108" xlink:href="#m2cf8308b52" y="494.540092"/>
      </g>
     </g>
     <g id="text_23">
      <!-- 200 -->
      <g transform="translate(81.9125 498.339311)scale(0.1 -0.1)">
       <use xlink:href="#DejaVuSans-32"/>
       <use x="63.623047" xlink:href="#DejaVuSans-30"/>
       <use x="127.246094" xlink:href="#DejaVuSans-30"/>
      </g>
     </g>
    </g>
    <g id="ytick_9">
     <g id="line2d_22">
      <g>
       <use style="stroke:#000000;stroke-width:0.8;" x="108" xlink:href="#m2cf8308b52" y="462.859494"/>
      </g>
     </g>
     <g id="text_24">
      <!-- 400 -->
      <g transform="translate(81.9125 466.658713)scale(0.1 -0.1)">
       <use xlink:href="#DejaVuSans-34"/>
       <use x="63.623047" xlink:href="#DejaVuSans-30"/>
       <use x="127.246094" xlink:href="#DejaVuSans-30"/>
      </g>
     </g>
    </g>
    <g id="ytick_10">
     <g id="line2d_23">
      <g>
       <use style="stroke:#000000;stroke-width:0.8;" x="108" xlink:href="#m2cf8308b52" y="431.178897"/>
      </g>
     </g>
     <g id="text_25">
      <!-- 600 -->
      <g transform="translate(81.9125 434.978115)scale(0.1 -0.1)">
       <use xlink:href="#DejaVuSans-36"/>
       <use x="63.623047" xlink:href="#DejaVuSans-30"/>
       <use x="127.246094" xlink:href="#DejaVuSans-30"/>
      </g>
     </g>
    </g>
    <g id="ytick_11">
     <g id="line2d_24">
      <g>
       <use style="stroke:#000000;stroke-width:0.8;" x="108" xlink:href="#m2cf8308b52" y="399.498299"/>
      </g>
     </g>
     <g id="text_26">
      <!-- 800 -->
      <g transform="translate(81.9125 403.297518)scale(0.1 -0.1)">
       <use xlink:href="#DejaVuSans-38"/>
       <use x="63.623047" xlink:href="#DejaVuSans-30"/>
       <use x="127.246094" xlink:href="#DejaVuSans-30"/>
      </g>
     </g>
    </g>
    <g id="ytick_12">
     <g id="line2d_25">
      <g>
       <use style="stroke:#000000;stroke-width:0.8;" x="108" xlink:href="#m2cf8308b52" y="367.817701"/>
      </g>
     </g>
     <g id="text_27">
      <!-- 1000 -->
      <g transform="translate(75.55 371.61692)scale(0.1 -0.1)">
       <use xlink:href="#DejaVuSans-31"/>
       <use x="63.623047" xlink:href="#DejaVuSans-30"/>
       <use x="127.246094" xlink:href="#DejaVuSans-30"/>
       <use x="190.869141" xlink:href="#DejaVuSans-30"/>
      </g>
     </g>
    </g>
    <g id="text_28">
     <!-- V[mV] -->
     <g transform="translate(69.470312 463.626293)rotate(-90)scale(0.1 -0.1)">
      <use xlink:href="#DejaVuSans-56"/>
      <use x="68.408203" xlink:href="#DejaVuSans-5b"/>
      <use x="107.421875" xlink:href="#DejaVuSans-6d"/>
      <use x="204.833984" xlink:href="#DejaVuSans-56"/>
      <use x="273.242188" xlink:href="#DejaVuSans-5d"/>
     </g>
    </g>
   </g>
   <g id="line2d_26">
    <path clip-path="url(#pcf3a6821f0)" d="M 138.436364 526.22069 
L 139.65394 460.96253 
L 140.871516 407.533667 
L 141.906456 369.806897 
L 142.028214 526.22069 
L 144.950397 526.22069 
L 146.167973 460.96253 
L 147.385549 407.533667 
L 148.420489 369.806897 
L 148.542247 526.22069 
L 151.46443 526.22069 
L 152.682006 460.96253 
L 153.899583 407.533667 
L 154.934523 369.806897 
L 155.05628 526.22069 
L 157.978463 526.22069 
L 159.19604 460.96253 
L 160.413616 407.533667 
L 161.448556 369.806897 
L 161.570313 526.22069 
L 164.492497 526.22069 
L 165.710073 460.96253 
L 166.927649 407.533667 
L 167.962589 369.806897 
L 168.084347 526.22069 
L 171.00653 526.22069 
L 172.224106 460.96253 
L 173.441682 407.533667 
L 174.476622 369.806897 
L 174.59838 526.22069 
L 177.520563 526.22069 
L 178.738139 460.96253 
L 179.955716 407.533667 
L 180.990655 369.806897 
L 181.112413 526.22069 
L 184.034596 526.22069 
L 185.252172 460.96253 
L 186.469749 407.533667 
L 187.504689 369.806897 
L 187.626446 526.22069 
L 190.548629 526.22069 
L 191.766206 460.96253 
L 192.983782 407.533667 
L 194.018722 369.806897 
L 194.14048 526.22069 
L 197.062663 526.22069 
L 198.280239 460.96253 
L 199.497815 407.533667 
L 200.532755 369.806897 
L 200.654513 526.22069 
L 203.576696 526.22069 
L 204.794272 460.96253 
L 206.011848 407.533667 
L 207.046788 369.806897 
L 207.168546 526.22069 
L 210.151608 526.22069 
L 211.369184 460.96253 
L 212.58676 407.533667 
L 213.6217 369.806897 
L 213.743458 526.22069 
L 216.72652 526.22069 
L 217.944096 460.96253 
L 219.161673 407.533667 
L 220.196612 369.806897 
L 220.31837 526.22069 
L 223.240553 526.22069 
L 224.458129 460.96253 
L 225.675706 407.533667 
L 226.710646 369.806897 
L 226.832403 526.22069 
L 229.815465 526.22069 
L 231.033041 460.96253 
L 232.250618 407.533667 
L 233.285558 369.806897 
L 233.407315 526.22069 
L 236.329498 526.22069 
L 237.547075 460.96253 
L 238.764651 407.533667 
L 239.799591 369.806897 
L 239.921348 526.22069 
L 242.843532 526.22069 
L 244.061108 460.96253 
L 245.278684 407.533667 
L 246.313624 369.806897 
L 246.435382 526.22069 
L 249.357565 526.22069 
L 250.575141 460.96253 
L 251.792717 407.533667 
L 252.827657 369.806897 
L 252.949415 526.22069 
L 255.871598 526.22069 
L 257.089174 460.96253 
L 258.306751 407.533667 
L 259.341691 369.806897 
L 259.463448 526.22069 
L 262.385631 526.22069 
L 263.603208 460.96253 
L 264.820784 407.533667 
L 265.855724 369.806897 
L 265.977481 526.22069 
L 268.899665 526.22069 
L 270.117241 460.96253 
L 271.334817 407.533667 
L 272.369757 369.806897 
L 272.491515 526.22069 
L 275.413698 526.22069 
L 276.631274 460.96253 
L 277.84885 407.533667 
L 278.88379 369.806897 
L 279.005548 526.22069 
L 281.927731 526.22069 
L 283.145307 460.96253 
L 284.362884 407.533667 
L 285.397823 369.806897 
L 285.519581 526.22069 
L 288.441764 526.22069 
L 289.65934 460.96253 
L 290.876917 407.533667 
L 291.911857 369.806897 
L 292.033614 526.22069 
L 294.955797 526.22069 
L 296.173374 460.96253 
L 297.39095 407.533667 
L 298.42589 369.806897 
L 298.547647 526.22069 
L 301.469831 526.22069 
L 302.687407 460.96253 
L 303.904983 407.533667 
L 304.939923 369.806897 
L 305.061681 526.22069 
L 307.983864 526.22069 
L 309.20144 460.96253 
L 310.419016 407.533667 
L 311.453956 369.806897 
L 311.575714 526.22069 
L 314.497897 526.22069 
L 315.715473 460.96253 
L 316.93305 407.533667 
L 317.96799 369.806897 
L 318.089747 526.22069 
L 321.01193 526.22069 
L 322.229507 460.96253 
L 323.447083 407.533667 
L 324.482023 369.806897 
L 324.60378 526.22069 
L 327.586842 526.22069 
L 328.804419 460.96253 
L 330.021995 407.533667 
L 331.056935 369.806897 
L 331.178692 526.22069 
L 334.100876 526.22069 
L 335.318452 460.96253 
L 336.536028 407.533667 
L 337.570968 369.806897 
L 337.692726 526.22069 
L 340.614909 526.22069 
L 341.832485 460.96253 
L 343.050061 407.533667 
L 344.085001 369.806897 
L 344.206759 526.22069 
L 347.128942 526.22069 
L 348.346518 460.96253 
L 349.564095 407.533667 
L 350.599034 369.806897 
L 350.720792 526.22069 
L 353.642975 526.22069 
L 354.860552 460.96253 
L 356.078128 407.533667 
L 357.113068 369.806897 
L 357.234825 526.22069 
L 360.157008 526.22069 
L 361.374585 460.96253 
L 362.592161 407.533667 
L 363.627101 369.806897 
L 363.748859 526.22069 
L 366.671042 526.22069 
L 367.888618 460.96253 
L 369.106194 407.533667 
L 370.141134 369.806897 
L 370.262892 526.22069 
L 373.185075 526.22069 
L 374.402651 460.96253 
L 375.620227 407.533667 
L 376.655167 369.806897 
L 376.776925 526.22069 
L 379.699108 526.22069 
L 380.916684 460.96253 
L 382.134261 407.533667 
L 383.169201 369.806897 
L 383.290958 526.22069 
L 386.213141 526.22069 
L 387.430718 460.96253 
L 388.648294 407.533667 
L 389.683234 369.806897 
L 389.804991 526.22069 
L 392.727175 526.22069 
L 393.944751 460.96253 
L 395.162327 407.533667 
L 396.197267 369.806897 
L 396.319025 526.22069 
L 399.241208 526.22069 
L 400.458784 460.96253 
L 401.67636 407.533667 
L 402.7113 369.806897 
L 402.833058 526.22069 
L 405.755241 526.22069 
L 406.972817 460.96253 
L 408.190394 407.533667 
L 409.225333 369.806897 
L 409.347091 526.22069 
L 412.269274 526.22069 
L 413.486851 460.96253 
L 414.704427 407.533667 
L 415.739367 369.806897 
L 415.861124 526.22069 
L 418.783307 526.22069 
L 420.000884 460.96253 
L 421.21846 407.533667 
L 422.2534 369.806897 
L 422.375158 526.22069 
L 425.297341 526.22069 
L 426.514917 460.96253 
L 427.732493 407.533667 
L 428.767433 369.806897 
L 428.889191 526.22069 
L 431.811374 526.22069 
L 433.02895 460.96253 
L 434.246526 407.533667 
L 435.281466 369.806897 
L 435.403224 526.22069 
L 438.325407 526.22069 
L 439.542983 460.96253 
L 440.76056 407.533667 
L 441.7955 369.806897 
L 441.917257 526.22069 
L 444.900319 526.22069 
L 446.117895 460.96253 
L 447.335472 407.533667 
L 448.370412 369.806897 
L 448.492169 526.22069 
L 451.414352 526.22069 
L 452.631929 460.96253 
L 453.849505 407.533667 
L 454.884445 369.806897 
L 455.006202 526.22069 
L 457.928386 526.22069 
L 459.145962 460.96253 
L 460.363538 407.533667 
L 461.398478 369.806897 
L 461.520236 526.22069 
L 464.442419 526.22069 
L 465.659995 460.96253 
L 466.877571 407.533667 
L 467.912511 369.806897 
L 468.034269 526.22069 
L 470.956452 526.22069 
L 472.174028 460.96253 
L 473.391605 407.533667 
L 474.426544 369.806897 
L 474.548302 526.22069 
L 477.470485 526.22069 
L 478.688062 460.96253 
L 479.905638 407.533667 
L 480.940578 369.806897 
L 481.062335 526.22069 
L 483.984518 526.22069 
L 485.202095 460.96253 
L 486.419671 407.533667 
L 487.454611 369.806897 
L 487.576369 526.22069 
L 490.498552 526.22069 
L 491.716128 460.96253 
L 492.933704 407.533667 
L 493.968644 369.806897 
L 494.090402 526.22069 
L 497.012585 526.22069 
L 498.230161 460.96253 
L 499.447738 407.533667 
L 500.482677 369.806897 
L 500.604435 526.22069 
L 503.526618 526.22069 
L 504.744194 460.96253 
L 505.961771 407.533667 
L 506.996711 369.806897 
L 507.118468 526.22069 
L 510.040651 526.22069 
L 511.258228 460.96253 
L 512.475804 407.533667 
L 513.510744 369.806897 
L 513.632501 526.22069 
L 516.554685 526.22069 
L 517.772261 460.96253 
L 518.989837 407.533667 
L 520.024777 369.806897 
L 520.146535 526.22069 
L 523.068718 526.22069 
L 524.286294 460.96253 
L 525.50387 407.533667 
L 526.53881 369.806897 
L 526.660568 526.22069 
L 529.582751 526.22069 
L 530.800327 460.96253 
L 532.017904 407.533667 
L 533.052843 369.806897 
L 533.174601 526.22069 
L 536.096784 526.22069 
L 537.314361 460.96253 
L 538.531937 407.533667 
L 539.566877 369.806897 
L 539.688634 526.22069 
L 542.610817 526.22069 
L 543.828394 460.96253 
L 545.04597 407.533667 
L 546.08091 369.806897 
L 546.202668 526.22069 
L 549.185729 526.22069 
L 550.403306 460.96253 
L 551.620882 407.533667 
L 552.655822 369.806897 
L 552.77758 526.22069 
L 555.699763 526.22069 
L 556.917339 460.96253 
L 558.134915 407.533667 
L 559.169855 369.806897 
L 559.291613 526.22069 
L 562.213796 526.22069 
L 563.431372 460.96253 
L 564.648949 407.533667 
L 565.683888 369.806897 
L 565.805646 526.22069 
L 568.727829 526.22069 
L 569.945405 460.96253 
L 571.162982 407.533667 
L 572.197922 369.806897 
L 572.319679 526.22069 
L 575.241862 526.22069 
L 576.459439 460.96253 
L 577.677015 407.533667 
L 578.711955 369.806897 
L 578.833712 526.22069 
L 581.755896 526.22069 
L 582.973472 460.96253 
L 584.191048 407.533667 
L 585.225988 369.806897 
L 585.347746 526.22069 
L 588.269929 526.22069 
L 589.487505 460.96253 
L 590.705081 407.533667 
L 591.740021 369.806897 
L 591.861779 526.22069 
L 594.783962 526.22069 
L 596.001538 460.96253 
L 597.219115 407.533667 
L 598.254054 369.806897 
L 598.375812 526.22069 
L 601.297995 526.22069 
L 602.515572 460.96253 
L 603.733148 407.533667 
L 604.768088 369.806897 
L 604.889845 526.22069 
L 607.812028 526.22069 
L 609.029605 460.96253 
L 610.247181 407.533667 
L 611.282121 369.806897 
L 611.403879 526.22069 
L 614.326062 526.22069 
L 615.543638 460.96253 
L 616.761214 407.533667 
L 617.796154 369.806897 
L 617.917912 526.22069 
L 620.840095 526.22069 
L 622.057671 460.96253 
L 623.275248 407.533667 
L 624.310187 369.806897 
L 624.431945 526.22069 
L 627.354128 526.22069 
L 628.571704 460.96253 
L 629.789281 407.533667 
L 630.824221 369.806897 
L 630.945978 526.22069 
L 633.868161 526.22069 
L 635.085738 460.96253 
L 636.303314 407.533667 
L 637.338254 369.806897 
L 637.460011 526.22069 
L 640.382195 526.22069 
L 641.599771 460.96253 
L 642.817347 407.533667 
L 643.852287 369.806897 
L 643.974045 526.22069 
L 646.896228 526.22069 
L 648.113804 460.96253 
L 649.33138 407.533667 
L 650.36632 369.806897 
L 650.488078 526.22069 
L 653.47114 526.22069 
L 654.688716 460.96253 
L 655.906292 407.533667 
L 656.941232 369.806897 
L 657.06299 526.22069 
L 659.985173 526.22069 
L 661.202749 460.96253 
L 662.420326 407.533667 
L 663.455266 369.806897 
L 663.577023 526.22069 
L 666.499206 526.22069 
L 667.716783 460.96253 
L 668.934359 407.533667 
L 669.969299 369.806897 
L 670.091056 526.22069 
L 673.01324 526.22069 
L 674.230816 460.96253 
L 675.448392 407.533667 
L 676.483332 369.806897 
L 676.60509 526.22069 
L 679.527273 526.22069 
L 680.744849 460.96253 
L 681.962425 407.533667 
L 682.997365 369.806897 
L 683.119123 526.22069 
L 686.041306 526.22069 
L 687.258882 460.96253 
L 688.476459 407.533667 
L 689.511398 369.806897 
L 689.633156 526.22069 
L 692.555339 526.22069 
L 693.772915 460.96253 
L 694.990492 407.533667 
L 696.025432 369.806897 
L 696.147189 526.22069 
L 699.069372 526.22069 
L 700.286949 460.96253 
L 701.504525 407.533667 
L 702.539465 369.806897 
L 702.661222 526.22069 
L 705.583406 526.22069 
L 706.800982 460.96253 
L 708.018558 407.533667 
L 709.053498 369.806897 
L 709.175256 526.22069 
L 712.097439 526.22069 
L 713.315015 460.96253 
L 714.532591 407.533667 
L 715.567531 369.806897 
L 715.689289 526.22069 
L 718.611472 526.22069 
L 719.829048 460.96253 
L 721.046625 407.533667 
L 722.081565 369.806897 
L 722.203322 526.22069 
L 725.125505 526.22069 
L 726.343082 460.96253 
L 727.560658 407.533667 
L 728.595598 369.806897 
L 728.717355 526.22069 
L 731.639538 526.22069 
L 732.857115 460.96253 
L 734.074691 407.533667 
L 735.109631 369.806897 
L 735.231389 526.22069 
L 738.153572 526.22069 
L 739.371148 460.96253 
L 740.588724 407.533667 
L 741.623664 369.806897 
L 741.745422 526.22069 
L 744.667605 526.22069 
L 745.885181 460.96253 
L 747.102758 407.533667 
L 747.163636 405.132495 
L 747.163636 405.132495 
" style="fill:none;stroke:#1f77b4;stroke-linecap:square;stroke-width:1.5;"/>
   </g>
   <g id="patch_8">
    <path d="M 108 534.041379 
L 108 361.986207 
" style="fill:none;stroke:#000000;stroke-linecap:square;stroke-linejoin:miter;stroke-width:0.8;"/>
   </g>
   <g id="patch_9">
    <path d="M 777.6 534.041379 
L 777.6 361.986207 
" style="fill:none;stroke:#000000;stroke-linecap:square;stroke-linejoin:miter;stroke-width:0.8;"/>
   </g>
   <g id="patch_10">
    <path d="M 108 534.041379 
L 777.6 534.041379 
" style="fill:none;stroke:#000000;stroke-linecap:square;stroke-linejoin:miter;stroke-width:0.8;"/>
   </g>
   <g id="patch_11">
    <path d="M 108 361.986207 
L 777.6 361.986207 
" style="fill:none;stroke:#000000;stroke-linecap:square;stroke-linejoin:miter;stroke-width:0.8;"/>
   </g>
  </g>
  <g id="axes_3">
   <g id="patch_12">
    <path d="M 108 740.507586 
L 777.6 740.507586 
L 777.6 568.452414 
L 108 568.452414 
z
" style="fill:#ffffff;"/>
   </g>
   <g id="matplotlib.axis_5">
    <g id="xtick_13">
     <g id="line2d_27">
      <g>
       <use style="stroke:#000000;stroke-width:0.8;" x="138.436364" xlink:href="#m005a5a3694" y="740.507586"/>
      </g>
     </g>
     <g id="text_29">
      <!-- 0 -->
      <g transform="translate(135.255114 755.106024)scale(0.1 -0.1)">
       <use xlink:href="#DejaVuSans-30"/>
      </g>
     </g>
    </g>
    <g id="xtick_14">
     <g id="line2d_28">
      <g>
       <use style="stroke:#000000;stroke-width:0.8;" x="260.193994" xlink:href="#m005a5a3694" y="740.507586"/>
      </g>
     </g>
     <g id="text_30">
      <!-- 200 -->
      <g transform="translate(250.650244 755.106024)scale(0.1 -0.1)">
       <use xlink:href="#DejaVuSans-32"/>
       <use x="63.623047" xlink:href="#DejaVuSans-30"/>
       <use x="127.246094" xlink:href="#DejaVuSans-30"/>
      </g>
     </g>
    </g>
    <g id="xtick_15">
     <g id="line2d_29">
      <g>
       <use style="stroke:#000000;stroke-width:0.8;" x="381.951624" xlink:href="#m005a5a3694" y="740.507586"/>
      </g>
     </g>
     <g id="text_31">
      <!-- 400 -->
      <g transform="translate(372.407874 755.106024)scale(0.1 -0.1)">
       <use xlink:href="#DejaVuSans-34"/>
       <use x="63.623047" xlink:href="#DejaVuSans-30"/>
       <use x="127.246094" xlink:href="#DejaVuSans-30"/>
      </g>
     </g>
    </g>
    <g id="xtick_16">
     <g id="line2d_30">
      <g>
       <use style="stroke:#000000;stroke-width:0.8;" x="503.709255" xlink:href="#m005a5a3694" y="740.507586"/>
      </g>
     </g>
     <g id="text_32">
      <!-- 600 -->
      <g transform="translate(494.165505 755.106024)scale(0.1 -0.1)">
       <use xlink:href="#DejaVuSans-36"/>
       <use x="63.623047" xlink:href="#DejaVuSans-30"/>
       <use x="127.246094" xlink:href="#DejaVuSans-30"/>
      </g>
     </g>
    </g>
    <g id="xtick_17">
     <g id="line2d_31">
      <g>
       <use style="stroke:#000000;stroke-width:0.8;" x="625.466885" xlink:href="#m005a5a3694" y="740.507586"/>
      </g>
     </g>
     <g id="text_33">
      <!-- 800 -->
      <g transform="translate(615.923135 755.106024)scale(0.1 -0.1)">
       <use xlink:href="#DejaVuSans-38"/>
       <use x="63.623047" xlink:href="#DejaVuSans-30"/>
       <use x="127.246094" xlink:href="#DejaVuSans-30"/>
      </g>
     </g>
    </g>
    <g id="xtick_18">
     <g id="line2d_32">
      <g>
       <use style="stroke:#000000;stroke-width:0.8;" x="747.224515" xlink:href="#m005a5a3694" y="740.507586"/>
      </g>
     </g>
     <g id="text_34">
      <!-- 1000 -->
      <g transform="translate(734.499515 755.106024)scale(0.1 -0.1)">
       <use xlink:href="#DejaVuSans-31"/>
       <use x="63.623047" xlink:href="#DejaVuSans-30"/>
       <use x="127.246094" xlink:href="#DejaVuSans-30"/>
       <use x="190.869141" xlink:href="#DejaVuSans-30"/>
      </g>
     </g>
    </g>
    <g id="text_35">
     <!-- v[50] -->
     <g transform="translate(429.576563 768.784149)scale(0.1 -0.1)">
      <use xlink:href="#DejaVuSans-76"/>
      <use x="59.179688" xlink:href="#DejaVuSans-5b"/>
      <use x="98.193359" xlink:href="#DejaVuSans-35"/>
      <use x="161.816406" xlink:href="#DejaVuSans-30"/>
      <use x="225.439453" xlink:href="#DejaVuSans-5d"/>
     </g>
    </g>
   </g>
   <g id="matplotlib.axis_6">
    <g id="ytick_13">
     <g id="line2d_33">
      <g>
       <use style="stroke:#000000;stroke-width:0.8;" x="108" xlink:href="#m2cf8308b52" y="732.686897"/>
      </g>
     </g>
     <g id="text_36">
      <!-- 0 -->
      <g transform="translate(94.6375 736.486115)scale(0.1 -0.1)">
       <use xlink:href="#DejaVuSans-30"/>
      </g>
     </g>
    </g>
    <g id="ytick_14">
     <g id="line2d_34">
      <g>
       <use style="stroke:#000000;stroke-width:0.8;" x="108" xlink:href="#m2cf8308b52" y="701.260887"/>
      </g>
     </g>
     <g id="text_37">
      <!-- 200 -->
      <g transform="translate(81.9125 705.060106)scale(0.1 -0.1)">
       <use xlink:href="#DejaVuSans-32"/>
       <use x="63.623047" xlink:href="#DejaVuSans-30"/>
       <use x="127.246094" xlink:href="#DejaVuSans-30"/>
      </g>
     </g>
    </g>
    <g id="ytick_15">
     <g id="line2d_35">
      <g>
       <use style="stroke:#000000;stroke-width:0.8;" x="108" xlink:href="#m2cf8308b52" y="669.834877"/>
      </g>
     </g>
     <g id="text_38">
      <!-- 400 -->
      <g transform="translate(81.9125 673.634096)scale(0.1 -0.1)">
       <use xlink:href="#DejaVuSans-34"/>
       <use x="63.623047" xlink:href="#DejaVuSans-30"/>
       <use x="127.246094" xlink:href="#DejaVuSans-30"/>
      </g>
     </g>
    </g>
    <g id="ytick_16">
     <g id="line2d_36">
      <g>
       <use style="stroke:#000000;stroke-width:0.8;" x="108" xlink:href="#m2cf8308b52" y="638.408868"/>
      </g>
     </g>
     <g id="text_39">
      <!-- 600 -->
      <g transform="translate(81.9125 642.208086)scale(0.1 -0.1)">
       <use xlink:href="#DejaVuSans-36"/>
       <use x="63.623047" xlink:href="#DejaVuSans-30"/>
       <use x="127.246094" xlink:href="#DejaVuSans-30"/>
      </g>
     </g>
    </g>
    <g id="ytick_17">
     <g id="line2d_37">
      <g>
       <use style="stroke:#000000;stroke-width:0.8;" x="108" xlink:href="#m2cf8308b52" y="606.982858"/>
      </g>
     </g>
     <g id="text_40">
      <!-- 800 -->
      <g transform="translate(81.9125 610.782077)scale(0.1 -0.1)">
       <use xlink:href="#DejaVuSans-38"/>
       <use x="63.623047" xlink:href="#DejaVuSans-30"/>
       <use x="127.246094" xlink:href="#DejaVuSans-30"/>
      </g>
     </g>
    </g>
    <g id="ytick_18">
     <g id="line2d_38">
      <g>
       <use style="stroke:#000000;stroke-width:0.8;" x="108" xlink:href="#m2cf8308b52" y="575.556848"/>
      </g>
     </g>
     <g id="text_41">
      <!-- 1000 -->
      <g transform="translate(75.55 579.356067)scale(0.1 -0.1)">
       <use xlink:href="#DejaVuSans-31"/>
       <use x="63.623047" xlink:href="#DejaVuSans-30"/>
       <use x="127.246094" xlink:href="#DejaVuSans-30"/>
       <use x="190.869141" xlink:href="#DejaVuSans-30"/>
      </g>
     </g>
    </g>
    <g id="text_42">
     <!-- V[mV] -->
     <g transform="translate(69.470312 670.0925)rotate(-90)scale(0.1 -0.1)">
      <use xlink:href="#DejaVuSans-56"/>
      <use x="68.408203" xlink:href="#DejaVuSans-5b"/>
      <use x="107.421875" xlink:href="#DejaVuSans-6d"/>
      <use x="204.833984" xlink:href="#DejaVuSans-56"/>
      <use x="273.242188" xlink:href="#DejaVuSans-5d"/>
     </g>
    </g>
   </g>
   <g id="line2d_39">
    <path clip-path="url(#pfd7c96ebf3)" d="M 138.436364 732.686897 
L 139.65394 689.53107 
L 140.871516 654.198068 
L 142.089093 625.269852 
L 143.306669 601.585432 
L 144.524245 582.194269 
L 144.950397 576.273103 
L 145.072154 732.686897 
L 147.994338 732.686897 
L 149.211914 689.53107 
L 150.42949 654.198068 
L 151.647067 625.269852 
L 152.864643 601.585432 
L 154.082219 582.194269 
L 154.508371 576.273103 
L 154.630128 732.686897 
L 157.552312 732.686897 
L 158.769888 689.53107 
L 159.987464 654.198068 
L 161.205041 625.269852 
L 162.422617 601.585432 
L 163.640193 582.194269 
L 164.066345 576.273103 
L 164.188102 732.686897 
L 167.171164 732.686897 
L 168.388741 689.53107 
L 169.606317 654.198068 
L 170.823893 625.269852 
L 172.04147 601.585432 
L 173.259046 582.194269 
L 173.685198 576.273103 
L 173.806955 732.686897 
L 176.790017 732.686897 
L 178.007593 689.53107 
L 179.22517 654.198068 
L 180.442746 625.269852 
L 181.660322 601.585432 
L 182.877899 582.194269 
L 183.30405 576.273103 
L 183.425808 732.686897 
L 186.347991 732.686897 
L 187.565567 689.53107 
L 188.783144 654.198068 
L 190.00072 625.269852 
L 191.218296 601.585432 
L 192.435873 582.194269 
L 192.862024 576.273103 
L 192.983782 732.686897 
L 195.966844 732.686897 
L 197.18442 689.53107 
L 198.401997 654.198068 
L 199.619573 625.269852 
L 200.837149 601.585432 
L 202.054725 582.194269 
L 202.480877 576.273103 
L 202.602635 732.686897 
L 205.524818 732.686897 
L 206.742394 689.53107 
L 207.959971 654.198068 
L 209.177547 625.269852 
L 210.395123 601.585432 
L 211.612699 582.194269 
L 212.038851 576.273103 
L 212.160609 732.686897 
L 215.082792 732.686897 
L 216.300368 689.53107 
L 217.517945 654.198068 
L 218.735521 625.269852 
L 219.953097 601.585432 
L 221.170673 582.194269 
L 221.596825 576.273103 
L 221.718583 732.686897 
L 224.640766 732.686897 
L 225.858342 689.53107 
L 227.075919 654.198068 
L 228.293495 625.269852 
L 229.511071 601.585432 
L 230.728647 582.194269 
L 231.154799 576.273103 
L 231.276557 732.686897 
L 234.259619 732.686897 
L 235.477195 689.53107 
L 236.694771 654.198068 
L 237.912348 625.269852 
L 239.129924 601.585432 
L 240.3475 582.194269 
L 240.773652 576.273103 
L 240.89541 732.686897 
L 243.817593 732.686897 
L 245.035169 689.53107 
L 246.252745 654.198068 
L 247.470322 625.269852 
L 248.687898 601.585432 
L 249.905474 582.194269 
L 250.331626 576.273103 
L 250.453384 732.686897 
L 253.436445 732.686897 
L 254.654022 689.53107 
L 255.871598 654.198068 
L 257.089174 625.269852 
L 258.306751 601.585432 
L 259.524327 582.194269 
L 259.950479 576.273103 
L 260.072236 732.686897 
L 262.994419 732.686897 
L 264.211996 689.53107 
L 265.429572 654.198068 
L 266.647148 625.269852 
L 267.864725 601.585432 
L 269.082301 582.194269 
L 269.508453 576.273103 
L 269.63021 732.686897 
L 272.552393 732.686897 
L 273.76997 689.53107 
L 274.987546 654.198068 
L 276.205122 625.269852 
L 277.422699 601.585432 
L 278.640275 582.194269 
L 279.066427 576.273103 
L 279.188184 732.686897 
L 282.110367 732.686897 
L 283.327944 689.53107 
L 284.54552 654.198068 
L 285.763096 625.269852 
L 286.980673 601.585432 
L 288.198249 582.194269 
L 288.624401 576.273103 
L 288.746158 732.686897 
L 291.668341 732.686897 
L 292.885918 689.53107 
L 294.103494 654.198068 
L 295.32107 625.269852 
L 296.538647 601.585432 
L 297.756223 582.194269 
L 298.182375 576.273103 
L 298.304132 732.686897 
L 301.226315 732.686897 
L 302.443892 689.53107 
L 303.661468 654.198068 
L 304.879044 625.269852 
L 306.096621 601.585432 
L 307.314197 582.194269 
L 307.740349 576.273103 
L 307.862106 732.686897 
L 310.784289 732.686897 
L 312.001866 689.53107 
L 313.219442 654.198068 
L 314.437018 625.269852 
L 315.654595 601.585432 
L 316.872171 582.194269 
L 317.298323 576.273103 
L 317.42008 732.686897 
L 320.342263 732.686897 
L 321.55984 689.53107 
L 322.777416 654.198068 
L 323.994992 625.269852 
L 325.212569 601.585432 
L 326.430145 582.194269 
L 326.856297 576.273103 
L 326.978054 732.686897 
L 329.900237 732.686897 
L 331.117814 689.53107 
L 332.33539 654.198068 
L 333.552966 625.269852 
L 334.770543 601.585432 
L 335.988119 582.194269 
L 336.414271 576.273103 
L 336.536028 732.686897 
L 339.458211 732.686897 
L 340.675788 689.53107 
L 341.893364 654.198068 
L 343.11094 625.269852 
L 344.328516 601.585432 
L 345.546093 582.194269 
L 345.972244 576.273103 
L 346.094002 732.686897 
L 349.016185 732.686897 
L 350.233762 689.53107 
L 351.451338 654.198068 
L 352.668914 625.269852 
L 353.88649 601.585432 
L 355.104067 582.194269 
L 355.530218 576.273103 
L 355.651976 732.686897 
L 358.574159 732.686897 
L 359.791736 689.53107 
L 361.009312 654.198068 
L 362.226888 625.269852 
L 363.444464 601.585432 
L 364.662041 582.194269 
L 365.088192 576.273103 
L 365.20995 732.686897 
L 368.132133 732.686897 
L 369.34971 689.53107 
L 370.567286 654.198068 
L 371.784862 625.269852 
L 373.002438 601.585432 
L 374.220015 582.194269 
L 374.646166 576.273103 
L 374.767924 732.686897 
L 377.690107 732.686897 
L 378.907683 689.53107 
L 380.12526 654.198068 
L 381.342836 625.269852 
L 382.560412 601.585432 
L 383.777989 582.194269 
L 384.20414 576.273103 
L 384.325898 732.686897 
L 387.248081 732.686897 
L 388.465657 689.53107 
L 389.683234 654.198068 
L 390.90081 625.269852 
L 392.118386 601.585432 
L 393.335963 582.194269 
L 393.762114 576.273103 
L 393.883872 732.686897 
L 396.806055 732.686897 
L 398.023631 689.53107 
L 399.241208 654.198068 
L 400.458784 625.269852 
L 401.67636 601.585432 
L 402.893937 582.194269 
L 403.320088 576.273103 
L 403.441846 732.686897 
L 406.364029 732.686897 
L 407.581605 689.53107 
L 408.799182 654.198068 
L 410.016758 625.269852 
L 411.234334 601.585432 
L 412.451911 582.194269 
L 412.878062 576.273103 
L 412.99982 732.686897 
L 415.922003 732.686897 
L 417.139579 689.53107 
L 418.357156 654.198068 
L 419.574732 625.269852 
L 420.792308 601.585432 
L 422.009885 582.194269 
L 422.436036 576.273103 
L 422.557794 732.686897 
L 425.479977 732.686897 
L 426.697553 689.53107 
L 427.91513 654.198068 
L 429.132706 625.269852 
L 430.350282 601.585432 
L 431.567859 582.194269 
L 431.99401 576.273103 
L 432.115768 732.686897 
L 435.037951 732.686897 
L 436.255527 689.53107 
L 437.473104 654.198068 
L 438.69068 625.269852 
L 439.908256 601.585432 
L 441.125833 582.194269 
L 441.551984 576.273103 
L 441.673742 732.686897 
L 444.595925 732.686897 
L 445.813501 689.53107 
L 447.031078 654.198068 
L 448.248654 625.269852 
L 449.46623 601.585432 
L 450.683807 582.194269 
L 451.109958 576.273103 
L 451.231716 732.686897 
L 454.153899 732.686897 
L 455.371475 689.53107 
L 456.589052 654.198068 
L 457.806628 625.269852 
L 459.024204 601.585432 
L 460.241781 582.194269 
L 460.667932 576.273103 
L 460.78969 732.686897 
L 463.711873 732.686897 
L 464.929449 689.53107 
L 466.147026 654.198068 
L 467.364602 625.269852 
L 468.582178 601.585432 
L 469.799755 582.194269 
L 470.225906 576.273103 
L 470.347664 732.686897 
L 473.269847 732.686897 
L 474.487423 689.53107 
L 475.705 654.198068 
L 476.922576 625.269852 
L 478.140152 601.585432 
L 479.357729 582.194269 
L 479.78388 576.273103 
L 479.905638 732.686897 
L 482.827821 732.686897 
L 484.045397 689.53107 
L 485.262974 654.198068 
L 486.48055 625.269852 
L 487.698126 601.585432 
L 488.915702 582.194269 
L 489.341854 576.273103 
L 489.463612 732.686897 
L 492.385795 732.686897 
L 493.603371 689.53107 
L 494.820948 654.198068 
L 496.038524 625.269852 
L 497.2561 601.585432 
L 498.473676 582.194269 
L 498.899828 576.273103 
L 499.021586 732.686897 
L 501.943769 732.686897 
L 503.161345 689.53107 
L 504.378922 654.198068 
L 505.596498 625.269852 
L 506.814074 601.585432 
L 508.03165 582.194269 
L 508.457802 576.273103 
L 508.57956 732.686897 
L 511.501743 732.686897 
L 512.719319 689.53107 
L 513.936896 654.198068 
L 515.154472 625.269852 
L 516.372048 601.585432 
L 517.589624 582.194269 
L 518.015776 576.273103 
L 518.137534 732.686897 
L 521.059717 732.686897 
L 522.277293 689.53107 
L 523.494869 654.198068 
L 524.712446 625.269852 
L 525.930022 601.585432 
L 527.147598 582.194269 
L 527.57375 576.273103 
L 527.695508 732.686897 
L 530.617691 732.686897 
L 531.835267 689.53107 
L 533.052843 654.198068 
L 534.27042 625.269852 
L 535.487996 601.585432 
L 536.705572 582.194269 
L 537.131724 576.273103 
L 537.253482 732.686897 
L 540.175665 732.686897 
L 541.393241 689.53107 
L 542.610817 654.198068 
L 543.828394 625.269852 
L 545.04597 601.585432 
L 546.263546 582.194269 
L 546.689698 576.273103 
L 546.811456 732.686897 
L 549.794518 732.686897 
L 551.012094 689.53107 
L 552.22967 654.198068 
L 553.447247 625.269852 
L 554.664823 601.585432 
L 555.882399 582.194269 
L 556.308551 576.273103 
L 556.430308 732.686897 
L 559.352492 732.686897 
L 560.570068 689.53107 
L 561.787644 654.198068 
L 563.005221 625.269852 
L 564.222797 601.585432 
L 565.440373 582.194269 
L 565.866525 576.273103 
L 565.988282 732.686897 
L 568.910466 732.686897 
L 570.128042 689.53107 
L 571.345618 654.198068 
L 572.563195 625.269852 
L 573.780771 601.585432 
L 574.998347 582.194269 
L 575.424499 576.273103 
L 575.546256 732.686897 
L 578.46844 732.686897 
L 579.686016 689.53107 
L 580.903592 654.198068 
L 582.121168 625.269852 
L 583.338745 601.585432 
L 584.556321 582.194269 
L 584.982473 576.273103 
L 585.10423 732.686897 
L 588.026414 732.686897 
L 589.24399 689.53107 
L 590.461566 654.198068 
L 591.679142 625.269852 
L 592.896719 601.585432 
L 594.114295 582.194269 
L 594.540447 576.273103 
L 594.662204 732.686897 
L 597.645266 732.686897 
L 598.862843 689.53107 
L 600.080419 654.198068 
L 601.297995 625.269852 
L 602.515572 601.585432 
L 603.733148 582.194269 
L 604.1593 576.273103 
L 604.281057 732.686897 
L 607.20324 732.686897 
L 608.420817 689.53107 
L 609.638393 654.198068 
L 610.855969 625.269852 
L 612.073546 601.585432 
L 613.291122 582.194269 
L 613.717274 576.273103 
L 613.839031 732.686897 
L 616.761214 732.686897 
L 617.978791 689.53107 
L 619.196367 654.198068 
L 620.413943 625.269852 
L 621.63152 601.585432 
L 622.849096 582.194269 
L 623.275248 576.273103 
L 623.397005 732.686897 
L 626.319188 732.686897 
L 627.536765 689.53107 
L 628.754341 654.198068 
L 629.971917 625.269852 
L 631.189493 601.585432 
L 632.40707 582.194269 
L 632.833222 576.273103 
L 632.954979 732.686897 
L 635.877162 732.686897 
L 637.094739 689.53107 
L 638.312315 654.198068 
L 639.529891 625.269852 
L 640.747467 601.585432 
L 641.965044 582.194269 
L 642.391195 576.273103 
L 642.512953 732.686897 
L 645.496015 732.686897 
L 646.713591 689.53107 
L 647.931168 654.198068 
L 649.148744 625.269852 
L 650.36632 601.585432 
L 651.583897 582.194269 
L 652.010048 576.273103 
L 652.131806 732.686897 
L 655.053989 732.686897 
L 656.271565 689.53107 
L 657.489142 654.198068 
L 658.706718 625.269852 
L 659.924294 601.585432 
L 661.141871 582.194269 
L 661.568022 576.273103 
L 661.68978 732.686897 
L 664.611963 732.686897 
L 665.829539 689.53107 
L 667.047116 654.198068 
L 668.264692 625.269852 
L 669.482268 601.585432 
L 670.699845 582.194269 
L 671.125996 576.273103 
L 671.247754 732.686897 
L 674.169937 732.686897 
L 675.387513 689.53107 
L 676.60509 654.198068 
L 677.822666 625.269852 
L 679.040242 601.585432 
L 680.257819 582.194269 
L 680.68397 576.273103 
L 680.805728 732.686897 
L 683.727911 732.686897 
L 684.945487 689.53107 
L 686.163064 654.198068 
L 687.38064 625.269852 
L 688.598216 601.585432 
L 689.815792 582.194269 
L 690.241944 576.273103 
L 690.363702 732.686897 
L 693.285885 732.686897 
L 694.503461 689.53107 
L 695.721038 654.198068 
L 696.938614 625.269852 
L 698.15619 601.585432 
L 699.373766 582.194269 
L 699.799918 576.273103 
L 699.921676 732.686897 
L 702.843859 732.686897 
L 704.061435 689.53107 
L 705.279012 654.198068 
L 706.496588 625.269852 
L 707.714164 601.585432 
L 708.93174 582.194269 
L 709.357892 576.273103 
L 709.47965 732.686897 
L 712.401833 732.686897 
L 713.619409 689.53107 
L 714.836986 654.198068 
L 716.054562 625.269852 
L 717.272138 601.585432 
L 718.489714 582.194269 
L 718.915866 576.273103 
L 719.037624 732.686897 
L 721.959807 732.686897 
L 723.177383 689.53107 
L 724.394959 654.198068 
L 725.612536 625.269852 
L 726.830112 601.585432 
L 728.047688 582.194269 
L 728.47384 576.273103 
L 728.595598 732.686897 
L 731.517781 732.686897 
L 732.735357 689.53107 
L 733.952933 654.198068 
L 735.17051 625.269852 
L 736.388086 601.585432 
L 737.605662 582.194269 
L 738.031814 576.273103 
L 738.153572 732.686897 
L 741.075755 732.686897 
L 742.293331 689.53107 
L 743.510907 654.198068 
L 744.728484 625.269852 
L 745.94606 601.585432 
L 747.163636 582.194269 
L 747.163636 582.194269 
" style="fill:none;stroke:#1f77b4;stroke-linecap:square;stroke-width:1.5;"/>
   </g>
   <g id="patch_13">
    <path d="M 108 740.507586 
L 108 568.452414 
" style="fill:none;stroke:#000000;stroke-linecap:square;stroke-linejoin:miter;stroke-width:0.8;"/>
   </g>
   <g id="patch_14">
    <path d="M 777.6 740.507586 
L 777.6 568.452414 
" style="fill:none;stroke:#000000;stroke-linecap:square;stroke-linejoin:miter;stroke-width:0.8;"/>
   </g>
   <g id="patch_15">
    <path d="M 108 740.507586 
L 777.6 740.507586 
" style="fill:none;stroke:#000000;stroke-linecap:square;stroke-linejoin:miter;stroke-width:0.8;"/>
   </g>
   <g id="patch_16">
    <path d="M 108 568.452414 
L 777.6 568.452414 
" style="fill:none;stroke:#000000;stroke-linecap:square;stroke-linejoin:miter;stroke-width:0.8;"/>
   </g>
  </g>
  <g id="axes_4">
   <g id="patch_17">
    <path d="M 108 946.973793 
L 777.6 946.973793 
L 777.6 774.918621 
L 108 774.918621 
z
" style="fill:#ffffff;"/>
   </g>
   <g id="matplotlib.axis_7">
    <g id="xtick_19">
     <g id="line2d_40">
      <g>
       <use style="stroke:#000000;stroke-width:0.8;" x="138.436364" xlink:href="#m005a5a3694" y="946.973793"/>
      </g>
     </g>
     <g id="text_43">
      <!-- 0 -->
      <g transform="translate(135.255114 961.572231)scale(0.1 -0.1)">
       <use xlink:href="#DejaVuSans-30"/>
      </g>
     </g>
    </g>
    <g id="xtick_20">
     <g id="line2d_41">
      <g>
       <use style="stroke:#000000;stroke-width:0.8;" x="260.193994" xlink:href="#m005a5a3694" y="946.973793"/>
      </g>
     </g>
     <g id="text_44">
      <!-- 200 -->
      <g transform="translate(250.650244 961.572231)scale(0.1 -0.1)">
       <use xlink:href="#DejaVuSans-32"/>
       <use x="63.623047" xlink:href="#DejaVuSans-30"/>
       <use x="127.246094" xlink:href="#DejaVuSans-30"/>
      </g>
     </g>
    </g>
    <g id="xtick_21">
     <g id="line2d_42">
      <g>
       <use style="stroke:#000000;stroke-width:0.8;" x="381.951624" xlink:href="#m005a5a3694" y="946.973793"/>
      </g>
     </g>
     <g id="text_45">
      <!-- 400 -->
      <g transform="translate(372.407874 961.572231)scale(0.1 -0.1)">
       <use xlink:href="#DejaVuSans-34"/>
       <use x="63.623047" xlink:href="#DejaVuSans-30"/>
       <use x="127.246094" xlink:href="#DejaVuSans-30"/>
      </g>
     </g>
    </g>
    <g id="xtick_22">
     <g id="line2d_43">
      <g>
       <use style="stroke:#000000;stroke-width:0.8;" x="503.709255" xlink:href="#m005a5a3694" y="946.973793"/>
      </g>
     </g>
     <g id="text_46">
      <!-- 600 -->
      <g transform="translate(494.165505 961.572231)scale(0.1 -0.1)">
       <use xlink:href="#DejaVuSans-36"/>
       <use x="63.623047" xlink:href="#DejaVuSans-30"/>
       <use x="127.246094" xlink:href="#DejaVuSans-30"/>
      </g>
     </g>
    </g>
    <g id="xtick_23">
     <g id="line2d_44">
      <g>
       <use style="stroke:#000000;stroke-width:0.8;" x="625.466885" xlink:href="#m005a5a3694" y="946.973793"/>
      </g>
     </g>
     <g id="text_47">
      <!-- 800 -->
      <g transform="translate(615.923135 961.572231)scale(0.1 -0.1)">
       <use xlink:href="#DejaVuSans-38"/>
       <use x="63.623047" xlink:href="#DejaVuSans-30"/>
       <use x="127.246094" xlink:href="#DejaVuSans-30"/>
      </g>
     </g>
    </g>
    <g id="xtick_24">
     <g id="line2d_45">
      <g>
       <use style="stroke:#000000;stroke-width:0.8;" x="747.224515" xlink:href="#m005a5a3694" y="946.973793"/>
      </g>
     </g>
     <g id="text_48">
      <!-- 1000 -->
      <g transform="translate(734.499515 961.572231)scale(0.1 -0.1)">
       <use xlink:href="#DejaVuSans-31"/>
       <use x="63.623047" xlink:href="#DejaVuSans-30"/>
       <use x="127.246094" xlink:href="#DejaVuSans-30"/>
       <use x="190.869141" xlink:href="#DejaVuSans-30"/>
      </g>
     </g>
    </g>
    <g id="text_49">
     <!-- v[25] -->
     <g transform="translate(429.576563 975.250356)scale(0.1 -0.1)">
      <use xlink:href="#DejaVuSans-76"/>
      <use x="59.179688" xlink:href="#DejaVuSans-5b"/>
      <use x="98.193359" xlink:href="#DejaVuSans-32"/>
      <use x="161.816406" xlink:href="#DejaVuSans-35"/>
      <use x="225.439453" xlink:href="#DejaVuSans-5d"/>
     </g>
    </g>
   </g>
   <g id="matplotlib.axis_8">
    <g id="ytick_19">
     <g id="line2d_46">
      <g>
       <use style="stroke:#000000;stroke-width:0.8;" x="108" xlink:href="#m2cf8308b52" y="939.153103"/>
      </g>
     </g>
     <g id="text_50">
      <!-- 0 -->
      <g transform="translate(94.6375 942.952322)scale(0.1 -0.1)">
       <use xlink:href="#DejaVuSans-30"/>
      </g>
     </g>
    </g>
    <g id="ytick_20">
     <g id="line2d_47">
      <g>
       <use style="stroke:#000000;stroke-width:0.8;" x="108" xlink:href="#m2cf8308b52" y="897.859862"/>
      </g>
     </g>
     <g id="text_51">
      <!-- 200 -->
      <g transform="translate(81.9125 901.659081)scale(0.1 -0.1)">
       <use xlink:href="#DejaVuSans-32"/>
       <use x="63.623047" xlink:href="#DejaVuSans-30"/>
       <use x="127.246094" xlink:href="#DejaVuSans-30"/>
      </g>
     </g>
    </g>
    <g id="ytick_21">
     <g id="line2d_48">
      <g>
       <use style="stroke:#000000;stroke-width:0.8;" x="108" xlink:href="#m2cf8308b52" y="856.566621"/>
      </g>
     </g>
     <g id="text_52">
      <!-- 400 -->
      <g transform="translate(81.9125 860.365839)scale(0.1 -0.1)">
       <use xlink:href="#DejaVuSans-34"/>
       <use x="63.623047" xlink:href="#DejaVuSans-30"/>
       <use x="127.246094" xlink:href="#DejaVuSans-30"/>
      </g>
     </g>
    </g>
    <g id="ytick_22">
     <g id="line2d_49">
      <g>
       <use style="stroke:#000000;stroke-width:0.8;" x="108" xlink:href="#m2cf8308b52" y="815.273379"/>
      </g>
     </g>
     <g id="text_53">
      <!-- 600 -->
      <g transform="translate(81.9125 819.072598)scale(0.1 -0.1)">
       <use xlink:href="#DejaVuSans-36"/>
       <use x="63.623047" xlink:href="#DejaVuSans-30"/>
       <use x="127.246094" xlink:href="#DejaVuSans-30"/>
      </g>
     </g>
    </g>
    <g id="text_54">
     <!-- V[mV] -->
     <g transform="translate(75.832812 876.558707)rotate(-90)scale(0.1 -0.1)">
      <use xlink:href="#DejaVuSans-56"/>
      <use x="68.408203" xlink:href="#DejaVuSans-5b"/>
      <use x="107.421875" xlink:href="#DejaVuSans-6d"/>
      <use x="204.833984" xlink:href="#DejaVuSans-56"/>
      <use x="273.242188" xlink:href="#DejaVuSans-5d"/>
     </g>
    </g>
   </g>
   <g id="line2d_50">
    <path clip-path="url(#p2b29536a9c)" d="M 138.436364 939.153103 
L 139.65394 910.800093 
L 140.871516 887.586611 
L 142.089093 868.58102 
L 143.306669 853.020558 
L 144.524245 840.280729 
L 145.741821 829.850239 
L 146.959398 821.310477 
L 148.176974 814.318711 
L 149.39455 808.594336 
L 150.612127 803.907615 
L 151.829703 800.070453 
L 153.047279 796.92885 
L 154.325734 794.241127 
L 155.60419 792.062502 
L 156.943523 790.221347 
L 158.343736 788.68404 
L 159.804828 787.4156 
L 161.387677 786.344971 
L 163.092284 785.46441 
L 165.040406 784.718139 
L 167.292922 784.106155 
L 169.97159 783.619608 
L 173.319925 783.247198 
L 177.885836 782.979219 
L 184.8869 782.815274 
L 199.376058 782.746341 
L 302.139498 782.73931 
L 747.163636 782.73931 
L 747.163636 782.73931 
" style="fill:none;stroke:#1f77b4;stroke-linecap:square;stroke-width:1.5;"/>
   </g>
   <g id="patch_18">
    <path d="M 108 946.973793 
L 108 774.918621 
" style="fill:none;stroke:#000000;stroke-linecap:square;stroke-linejoin:miter;stroke-width:0.8;"/>
   </g>
   <g id="patch_19">
    <path d="M 777.6 946.973793 
L 777.6 774.918621 
" style="fill:none;stroke:#000000;stroke-linecap:square;stroke-linejoin:miter;stroke-width:0.8;"/>
   </g>
   <g id="patch_20">
    <path d="M 108 946.973793 
L 777.6 946.973793 
" style="fill:none;stroke:#000000;stroke-linecap:square;stroke-linejoin:miter;stroke-width:0.8;"/>
   </g>
   <g id="patch_21">
    <path d="M 108 774.918621 
L 777.6 774.918621 
" style="fill:none;stroke:#000000;stroke-linecap:square;stroke-linejoin:miter;stroke-width:0.8;"/>
   </g>
  </g>
  <g id="axes_5">
   <g id="patch_22">
    <path d="M 108 1153.44 
L 777.6 1153.44 
L 777.6 981.384828 
L 108 981.384828 
z
" style="fill:#ffffff;"/>
   </g>
   <g id="matplotlib.axis_9">
    <g id="xtick_25">
     <g id="line2d_51">
      <g>
       <use style="stroke:#000000;stroke-width:0.8;" x="138.436364" xlink:href="#m005a5a3694" y="1153.44"/>
      </g>
     </g>
     <g id="text_55">
      <!-- 0 -->
      <g transform="translate(135.255114 1168.038438)scale(0.1 -0.1)">
       <use xlink:href="#DejaVuSans-30"/>
      </g>
     </g>
    </g>
    <g id="xtick_26">
     <g id="line2d_52">
      <g>
       <use style="stroke:#000000;stroke-width:0.8;" x="260.193994" xlink:href="#m005a5a3694" y="1153.44"/>
      </g>
     </g>
     <g id="text_56">
      <!-- 200 -->
      <g transform="translate(250.650244 1168.038438)scale(0.1 -0.1)">
       <use xlink:href="#DejaVuSans-32"/>
       <use x="63.623047" xlink:href="#DejaVuSans-30"/>
       <use x="127.246094" xlink:href="#DejaVuSans-30"/>
      </g>
     </g>
    </g>
    <g id="xtick_27">
     <g id="line2d_53">
      <g>
       <use style="stroke:#000000;stroke-width:0.8;" x="381.951624" xlink:href="#m005a5a3694" y="1153.44"/>
      </g>
     </g>
     <g id="text_57">
      <!-- 400 -->
      <g transform="translate(372.407874 1168.038438)scale(0.1 -0.1)">
       <use xlink:href="#DejaVuSans-34"/>
       <use x="63.623047" xlink:href="#DejaVuSans-30"/>
       <use x="127.246094" xlink:href="#DejaVuSans-30"/>
      </g>
     </g>
    </g>
    <g id="xtick_28">
     <g id="line2d_54">
      <g>
       <use style="stroke:#000000;stroke-width:0.8;" x="503.709255" xlink:href="#m005a5a3694" y="1153.44"/>
      </g>
     </g>
     <g id="text_58">
      <!-- 600 -->
      <g transform="translate(494.165505 1168.038438)scale(0.1 -0.1)">
       <use xlink:href="#DejaVuSans-36"/>
       <use x="63.623047" xlink:href="#DejaVuSans-30"/>
       <use x="127.246094" xlink:href="#DejaVuSans-30"/>
      </g>
     </g>
    </g>
    <g id="xtick_29">
     <g id="line2d_55">
      <g>
       <use style="stroke:#000000;stroke-width:0.8;" x="625.466885" xlink:href="#m005a5a3694" y="1153.44"/>
      </g>
     </g>
     <g id="text_59">
      <!-- 800 -->
      <g transform="translate(615.923135 1168.038438)scale(0.1 -0.1)">
       <use xlink:href="#DejaVuSans-38"/>
       <use x="63.623047" xlink:href="#DejaVuSans-30"/>
       <use x="127.246094" xlink:href="#DejaVuSans-30"/>
      </g>
     </g>
    </g>
    <g id="xtick_30">
     <g id="line2d_56">
      <g>
       <use style="stroke:#000000;stroke-width:0.8;" x="747.224515" xlink:href="#m005a5a3694" y="1153.44"/>
      </g>
     </g>
     <g id="text_60">
      <!-- 1000 -->
      <g transform="translate(734.499515 1168.038438)scale(0.1 -0.1)">
       <use xlink:href="#DejaVuSans-31"/>
       <use x="63.623047" xlink:href="#DejaVuSans-30"/>
       <use x="127.246094" xlink:href="#DejaVuSans-30"/>
       <use x="190.869141" xlink:href="#DejaVuSans-30"/>
      </g>
     </g>
    </g>
    <g id="text_61">
     <!-- v[0] -->
     <g transform="translate(432.757812 1181.716563)scale(0.1 -0.1)">
      <use xlink:href="#DejaVuSans-76"/>
      <use x="59.179688" xlink:href="#DejaVuSans-5b"/>
      <use x="98.193359" xlink:href="#DejaVuSans-30"/>
      <use x="161.816406" xlink:href="#DejaVuSans-5d"/>
     </g>
    </g>
   </g>
   <g id="matplotlib.axis_10">
    <g id="ytick_23">
     <g id="line2d_57">
      <g>
       <use style="stroke:#000000;stroke-width:0.8;" x="108" xlink:href="#m2cf8308b52" y="1129.977931"/>
      </g>
     </g>
     <g id="text_62">
      <!-- 0.04 -->
      <defs>
       <path d="M 10.59375 35.5 
L 73.1875 35.5 
L 73.1875 27.203125 
L 10.59375 27.203125 
z
" id="DejaVuSans-2212"/>
       <path d="M 10.6875 12.40625 
L 21 12.40625 
L 21 0 
L 10.6875 0 
z
" id="DejaVuSans-2e"/>
      </defs>
      <g transform="translate(70.354687 1133.77715)scale(0.1 -0.1)">
       <use xlink:href="#DejaVuSans-2212"/>
       <use x="83.789062" xlink:href="#DejaVuSans-30"/>
       <use x="147.412109" xlink:href="#DejaVuSans-2e"/>
       <use x="179.199219" xlink:href="#DejaVuSans-30"/>
       <use x="242.822266" xlink:href="#DejaVuSans-34"/>
      </g>
     </g>
    </g>
    <g id="ytick_24">
     <g id="line2d_58">
      <g>
       <use style="stroke:#000000;stroke-width:0.8;" x="108" xlink:href="#m2cf8308b52" y="1098.695172"/>
      </g>
     </g>
     <g id="text_63">
      <!-- 0.02 -->
      <g transform="translate(70.354687 1102.494391)scale(0.1 -0.1)">
       <use xlink:href="#DejaVuSans-2212"/>
       <use x="83.789062" xlink:href="#DejaVuSans-30"/>
       <use x="147.412109" xlink:href="#DejaVuSans-2e"/>
       <use x="179.199219" xlink:href="#DejaVuSans-30"/>
       <use x="242.822266" xlink:href="#DejaVuSans-32"/>
      </g>
     </g>
    </g>
    <g id="ytick_25">
     <g id="line2d_59">
      <g>
       <use style="stroke:#000000;stroke-width:0.8;" x="108" xlink:href="#m2cf8308b52" y="1067.412414"/>
      </g>
     </g>
     <g id="text_64">
      <!-- 0.00 -->
      <g transform="translate(78.734375 1071.211633)scale(0.1 -0.1)">
       <use xlink:href="#DejaVuSans-30"/>
       <use x="63.623047" xlink:href="#DejaVuSans-2e"/>
       <use x="95.410156" xlink:href="#DejaVuSans-30"/>
       <use x="159.033203" xlink:href="#DejaVuSans-30"/>
      </g>
     </g>
    </g>
    <g id="ytick_26">
     <g id="line2d_60">
      <g>
       <use style="stroke:#000000;stroke-width:0.8;" x="108" xlink:href="#m2cf8308b52" y="1036.129655"/>
      </g>
     </g>
     <g id="text_65">
      <!-- 0.02 -->
      <g transform="translate(78.734375 1039.928874)scale(0.1 -0.1)">
       <use xlink:href="#DejaVuSans-30"/>
       <use x="63.623047" xlink:href="#DejaVuSans-2e"/>
       <use x="95.410156" xlink:href="#DejaVuSans-30"/>
       <use x="159.033203" xlink:href="#DejaVuSans-32"/>
      </g>
     </g>
    </g>
    <g id="ytick_27">
     <g id="line2d_61">
      <g>
       <use style="stroke:#000000;stroke-width:0.8;" x="108" xlink:href="#m2cf8308b52" y="1004.846897"/>
      </g>
     </g>
     <g id="text_66">
      <!-- 0.04 -->
      <g transform="translate(78.734375 1008.646115)scale(0.1 -0.1)">
       <use xlink:href="#DejaVuSans-30"/>
       <use x="63.623047" xlink:href="#DejaVuSans-2e"/>
       <use x="95.410156" xlink:href="#DejaVuSans-30"/>
       <use x="159.033203" xlink:href="#DejaVuSans-34"/>
      </g>
     </g>
    </g>
    <g id="text_67">
     <!-- V[mV] -->
     <g transform="translate(64.275 1083.024914)rotate(-90)scale(0.1 -0.1)">
      <use xlink:href="#DejaVuSans-56"/>
      <use x="68.408203" xlink:href="#DejaVuSans-5b"/>
      <use x="107.421875" xlink:href="#DejaVuSans-6d"/>
      <use x="204.833984" xlink:href="#DejaVuSans-56"/>
      <use x="273.242188" xlink:href="#DejaVuSans-5d"/>
     </g>
    </g>
   </g>
   <g id="line2d_62">
    <path clip-path="url(#pf54da20ab8)" d="M 138.436364 1067.412414 
L 747.163636 1067.412414 
L 747.163636 1067.412414 
" style="fill:none;stroke:#1f77b4;stroke-linecap:square;stroke-width:1.5;"/>
   </g>
   <g id="patch_23">
    <path d="M 108 1153.44 
L 108 981.384828 
" style="fill:none;stroke:#000000;stroke-linecap:square;stroke-linejoin:miter;stroke-width:0.8;"/>
   </g>
   <g id="patch_24">
    <path d="M 777.6 1153.44 
L 777.6 981.384828 
" style="fill:none;stroke:#000000;stroke-linecap:square;stroke-linejoin:miter;stroke-width:0.8;"/>
   </g>
   <g id="patch_25">
    <path d="M 108 1153.44 
L 777.6 1153.44 
" style="fill:none;stroke:#000000;stroke-linecap:square;stroke-linejoin:miter;stroke-width:0.8;"/>
   </g>
   <g id="patch_26">
    <path d="M 108 981.384828 
L 777.6 981.384828 
" style="fill:none;stroke:#000000;stroke-linecap:square;stroke-linejoin:miter;stroke-width:0.8;"/>
   </g>
  </g>
 </g>
 <defs>
  <clipPath id="p0c9884d0c6">
   <rect height="172.055172" width="669.6" x="108" y="155.52"/>
  </clipPath>
  <clipPath id="pcf3a6821f0">
   <rect height="172.055172" width="669.6" x="108" y="361.986207"/>
  </clipPath>
  <clipPath id="pfd7c96ebf3">
   <rect height="172.055172" width="669.6" x="108" y="568.452414"/>
  </clipPath>
  <clipPath id="p2b29536a9c">
   <rect height="172.055172" width="669.6" x="108" y="774.918621"/>
  </clipPath>
  <clipPath id="pf54da20ab8">
   <rect height="172.055172" width="669.6" x="108" y="981.384828"/>
  </clipPath>
 </defs>
</svg>
